{"glyphs":{"0":{"ha":814,"x_min":68,"x_max":746,"o":"m 271 475 l 271 543 l 339 543 l 339 610 l 407 610 l 407 678 l 475 678 l 475 746 l 610 746 l 610 814 l 543 814 l 543 882 l 271 882 l 271 814 l 203 814 l 203 475 l 271 475 m 203 339 l 203 271 l 271 271 l 271 203 l 543 203 l 543 271 l 610 271 l 610 610 l 543 610 l 543 543 l 475 543 l 475 475 l 407 475 l 407 407 l 339 407 l 339 339 l 203 339 m 203 949 l 203 1017 l 610 1017 l 610 949 l 678 949 l 678 882 l 746 882 l 746 203 l 678 203 l 678 136 l 610 136 l 610 68 l 203 68 l 203 136 l 136 136 l 136 203 l 68 203 l 68 882 l 136 882 l 136 949 l 203 949 z "},"1":{"ha":814,"x_min":203,"x_max":610,"o":"m 475 203 l 610 203 l 610 68 l 203 68 l 203 203 l 339 203 l 339 746 l 203 746 l 203 882 l 271 882 l 271 949 l 339 949 l 339 1017 l 475 1017 l 475 203 z "},"2":{"ha":814,"x_min":68,"x_max":746,"o":"m 203 203 l 746 203 l 746 68 l 68 68 l 68 475 l 136 475 l 136 543 l 203 543 l 203 610 l 543 610 l 543 678 l 610 678 l 610 814 l 543 814 l 543 882 l 271 882 l 271 814 l 203 814 l 203 746 l 68 746 l 68 882 l 136 882 l 136 949 l 203 949 l 203 1017 l 610 1017 l 610 949 l 678 949 l 678 882 l 746 882 l 746 610 l 678 610 l 678 543 l 610 543 l 610 475 l 271 475 l 271 407 l 203 407 l 203 203 z "},"3":{"ha":814,"x_min":68,"x_max":746,"o":"m 136 203 l 68 203 l 68 339 l 203 339 l 203 271 l 271 271 l 271 203 l 543 203 l 543 271 l 610 271 l 610 407 l 543 407 l 543 475 l 339 475 l 339 610 l 543 610 l 543 678 l 610 678 l 610 814 l 543 814 l 543 882 l 271 882 l 271 814 l 203 814 l 203 746 l 68 746 l 68 882 l 136 882 l 136 949 l 203 949 l 203 1017 l 610 1017 l 610 949 l 678 949 l 678 882 l 746 882 l 746 610 l 678 610 l 678 475 l 746 475 l 746 203 l 678 203 l 678 136 l 610 136 l 610 68 l 203 68 l 203 136 l 136 136 l 136 203 z "},"4":{"ha":814,"x_min":68,"x_max":746,"o":"m 475 949 l 475 1017 l 610 1017 l 610 475 l 746 475 l 746 339 l 610 339 l 610 68 l 475 68 l 475 339 l 68 339 l 68 610 l 136 610 l 136 678 l 203 678 l 203 746 l 271 746 l 271 814 l 339 814 l 339 882 l 407 882 l 407 949 l 475 949 m 475 475 l 475 746 l 407 746 l 407 678 l 339 678 l 339 610 l 271 610 l 271 543 l 203 543 l 203 475 l 475 475 z "},"5":{"ha":814,"x_min":68,"x_max":746,"o":"m 68 1017 l 746 1017 l 746 882 l 203 882 l 203 746 l 610 746 l 610 678 l 678 678 l 678 610 l 746 610 l 746 203 l 678 203 l 678 136 l 610 136 l 610 68 l 203 68 l 203 136 l 136 136 l 136 203 l 68 203 l 68 339 l 203 339 l 203 271 l 271 271 l 271 203 l 543 203 l 543 271 l 610 271 l 610 543 l 543 543 l 543 610 l 68 610 l 68 1017 z "},"6":{"ha":814,"x_min":68,"x_max":746,"o":"m 610 136 l 610 68 l 203 68 l 203 136 l 136 136 l 136 203 l 68 203 l 68 882 l 136 882 l 136 949 l 203 949 l 203 1017 l 610 1017 l 610 949 l 678 949 l 678 882 l 746 882 l 746 746 l 610 746 l 610 814 l 543 814 l 543 882 l 271 882 l 271 814 l 203 814 l 203 610 l 610 610 l 610 543 l 678 543 l 678 475 l 746 475 l 746 203 l 678 203 l 678 136 l 610 136 m 271 203 l 543 203 l 543 271 l 610 271 l 610 407 l 543 407 l 543 475 l 203 475 l 203 271 l 271 271 l 271 203 z "},"7":{"ha":814,"x_min":68,"x_max":746,"o":"m 610 882 l 68 882 l 68 1017 l 746 1017 l 746 678 l 678 678 l 678 610 l 610 610 l 610 543 l 543 543 l 543 475 l 475 475 l 475 68 l 339 68 l 339 543 l 407 543 l 407 610 l 475 610 l 475 678 l 543 678 l 543 746 l 610 746 l 610 882 z "},"8":{"ha":814,"x_min":68,"x_max":746,"o":"m 271 203 l 543 203 l 543 271 l 610 271 l 610 407 l 543 407 l 543 475 l 271 475 l 271 407 l 203 407 l 203 271 l 271 271 l 271 203 m 610 136 l 610 68 l 203 68 l 203 136 l 136 136 l 136 203 l 68 203 l 68 475 l 136 475 l 136 610 l 68 610 l 68 882 l 136 882 l 136 949 l 203 949 l 203 1017 l 610 1017 l 610 949 l 678 949 l 678 882 l 746 882 l 746 610 l 678 610 l 678 475 l 746 475 l 746 203 l 678 203 l 678 136 l 610 136 m 543 882 l 271 882 l 271 814 l 203 814 l 203 678 l 271 678 l 271 610 l 543 610 l 543 678 l 610 678 l 610 814 l 543 814 l 543 882 z "},"9":{"ha":814,"x_min":68,"x_max":746,"o":"m 136 203 l 68 203 l 68 339 l 203 339 l 203 271 l 271 271 l 271 203 l 543 203 l 543 271 l 610 271 l 610 475 l 203 475 l 203 543 l 136 543 l 136 610 l 68 610 l 68 882 l 136 882 l 136 949 l 203 949 l 203 1017 l 610 1017 l 610 949 l 678 949 l 678 882 l 746 882 l 746 203 l 678 203 l 678 136 l 610 136 l 610 68 l 203 68 l 203 136 l 136 136 l 136 203 m 610 610 l 610 814 l 543 814 l 543 882 l 271 882 l 271 814 l 203 814 l 203 677 l 271 677 l 271 610 l 610 610 z "},"\u0000":{"ha":0,"x_min":0,"x_max":0,"o":""}," ":{"ha":814,"x_min":0,"x_max":0,"o":""},"!":{"ha":814,"x_min":271,"x_max":407,"o":"m 407 203 l 407 68 l 271 68 l 271 203 l 407 203 m 407 339 l 271 339 l 271 1017 l 407 1017 l 407 339 z "},"\"":{"ha":814,"x_min":136,"x_max":678,"o":"m 610 814 l 610 746 l 543 746 l 543 814 l 475 814 l 475 1017 l 678 1017 l 678 814 l 610 814 m 339 1017 l 339 814 l 271 814 l 271 746 l 203 746 l 203 814 l 136 814 l 136 1017 l 339 1017 z "},"#":{"ha":814,"x_min":68,"x_max":746,"o":"m 203 610 l 68 610 l 68 746 l 203 746 l 203 949 l 339 949 l 339 814 l 475 814 l 475 1017 l 610 1017 l 610 882 l 746 882 l 746 746 l 610 746 l 610 543 l 746 543 l 746 407 l 610 407 l 610 203 l 475 203 l 475 339 l 339 339 l 339 136 l 203 136 l 203 271 l 68 271 l 68 407 l 203 407 l 203 610 m 339 678 l 339 475 l 475 475 l 475 678 l 339 678 z "},"$":{"ha":814,"x_min":68,"x_max":746,"o":"m 475 949 l 610 949 l 610 882 l 678 882 l 678 814 l 746 814 l 746 678 l 610 678 l 610 746 l 543 746 l 543 814 l 475 814 l 475 610 l 610 610 l 610 543 l 678 543 l 678 475 l 746 475 l 746 271 l 678 271 l 678 203 l 610 203 l 610 136 l 475 136 l 475 68 l 339 68 l 339 136 l 203 136 l 203 203 l 136 203 l 136 271 l 68 271 l 68 407 l 203 407 l 203 339 l 271 339 l 271 271 l 339 271 l 339 475 l 203 475 l 203 543 l 136 543 l 136 610 l 68 610 l 68 814 l 136 814 l 136 882 l 203 882 l 203 949 l 339 949 l 339 1017 l 475 1017 l 475 949 m 475 271 l 543 271 l 543 339 l 610 339 l 610 407 l 543 407 l 543 475 l 475 475 l 475 271 m 339 814 l 271 814 l 271 746 l 203 746 l 203 678 l 271 678 l 271 610 l 339 610 l 339 814 z "},"%":{"ha":814,"x_min":68,"x_max":746,"o":"m 203 746 l 271 746 l 271 882 l 203 882 l 203 746 m 678 136 l 678 68 l 475 68 l 475 136 l 407 136 l 407 407 l 475 407 l 475 475 l 678 475 l 678 407 l 746 407 l 746 136 l 678 136 m 543 203 l 610 203 l 610 339 l 543 339 l 543 203 m 407 678 l 475 678 l 475 746 l 543 746 l 543 814 l 610 814 l 610 1017 l 746 1017 l 746 746 l 678 746 l 678 678 l 610 678 l 610 610 l 543 610 l 543 543 l 475 543 l 475 475 l 407 475 l 407 407 l 339 407 l 339 339 l 271 339 l 271 271 l 203 271 l 203 68 l 68 68 l 68 339 l 136 339 l 136 407 l 203 407 l 203 475 l 271 475 l 271 543 l 339 543 l 339 610 l 136 610 l 136 678 l 68 678 l 68 949 l 136 949 l 136 1017 l 339 1017 l 339 949 l 407 949 l 407 678 m 339 610 l 407 610 l 407 678 l 339 678 l 339 610 z "},"&":{"ha":814,"x_min":68,"x_max":746,"o":"m 475 1017 l 271 1017 l 271 746 l 339 746 l 339 678 l 407 678 l 407 746 l 475 746 l 475 1017 m 475 339 l 407 339 l 407 407 l 339 407 l 339 475 l 203 475 l 203 271 l 271 271 l 271 203 l 475 203 l 475 339 m 475 475 l 543 475 l 543 407 l 610 407 l 610 475 l 746 475 l 746 339 l 678 339 l 678 203 l 746 203 l 746 68 l 610 68 l 610 136 l 543 136 l 543 68 l 203 68 l 203 136 l 136 136 l 136 203 l 68 203 l 68 543 l 136 543 l 136 610 l 203 610 l 203 746 l 136 746 l 136 1017 l 203 1017 l 203 1085 l 271 1085 l 271 1153 l 475 1153 l 475 1085 l 543 1085 l 543 1017 l 610 1017 l 610 746 l 543 746 l 543 610 l 475 610 l 475 475 z "},"'":{"ha":814,"x_min":271,"x_max":475,"o":"m 475 1017 l 475 814 l 407 814 l 407 746 l 339 746 l 339 814 l 271 814 l 271 1017 l 475 1017 z "},"(":{"ha":814,"x_min":203,"x_max":543,"o":"m 475 136 l 543 136 l 543 68 l 407 68 l 407 136 l 339 136 l 339 203 l 271 203 l 271 271 l 203 271 l 203 949 l 271 949 l 271 1017 l 339 1017 l 339 1085 l 407 1085 l 407 1153 l 543 1153 l 543 1085 l 475 1085 l 475 1017 l 407 1017 l 407 949 l 339 949 l 339 271 l 407 271 l 407 203 l 475 203 l 475 136 z "},")":{"ha":814,"x_min":271,"x_max":610,"o":"m 407 136 l 407 68 l 271 68 l 271 136 l 339 136 l 339 203 l 407 203 l 407 271 l 475 271 l 475 949 l 407 949 l 407 1017 l 339 1017 l 339 1085 l 271 1085 l 271 1153 l 407 1153 l 407 1085 l 475 1085 l 475 1017 l 543 1017 l 543 949 l 610 949 l 610 271 l 543 271 l 543 203 l 475 203 l 475 136 l 407 136 z "},"*":{"ha":814,"x_min":136,"x_max":678,"o":"m 203 610 l 203 543 l 136 543 l 136 678 l 203 678 l 203 746 l 271 746 l 271 814 l 203 814 l 203 882 l 136 882 l 136 1017 l 203 1017 l 203 949 l 271 949 l 271 882 l 339 882 l 339 1085 l 475 1085 l 475 882 l 543 882 l 543 949 l 610 949 l 610 1017 l 678 1017 l 678 882 l 610 882 l 610 814 l 543 814 l 543 746 l 610 746 l 610 678 l 678 678 l 678 543 l 610 543 l 610 610 l 543 610 l 543 678 l 475 678 l 475 475 l 339 475 l 339 678 l 271 678 l 271 610 l 203 610 z "},"+":{"ha":814,"x_min":68,"x_max":746,"o":"m 339 610 l 339 882 l 475 882 l 475 610 l 746 610 l 746 475 l 475 475 l 475 203 l 339 203 l 339 475 l 68 475 l 68 610 l 339 610 z "},",":{"ha":814,"x_min":203,"x_max":475,"o":"m 339 203 l 339 339 l 475 339 l 475 203 l 407 203 l 407 136 l 339 136 l 339 68 l 203 68 l 203 136 l 271 136 l 271 203 l 339 203 z "},"-":{"ha":814,"x_min":136,"x_max":678,"o":"m 678 610 l 678 475 l 136 475 l 136 610 l 678 610 z "},".":{"ha":814,"x_min":271,"x_max":407,"o":"m 407 203 l 407 68 l 271 68 l 271 203 l 407 203 z "},"/":{"ha":814,"x_min":68,"x_max":746,"o":"m 610 1017 l 746 1017 l 746 746 l 678 746 l 678 678 l 610 678 l 610 610 l 543 610 l 543 543 l 475 543 l 475 475 l 407 475 l 407 407 l 339 407 l 339 339 l 271 339 l 271 271 l 203 271 l 203 68 l 68 68 l 68 339 l 136 339 l 136 407 l 203 407 l 203 475 l 271 475 l 271 543 l 339 543 l 339 610 l 407 610 l 407 678 l 475 678 l 475 746 l 543 746 l 543 814 l 610 814 l 610 1017 z "},":":{"ha":814,"x_min":271,"x_max":407,"o":"m 407 339 l 407 203 l 271 203 l 271 339 l 407 339 m 407 882 l 407 746 l 271 746 l 271 882 l 407 882 z "},";":{"ha":814,"x_min":136,"x_max":407,"o":"m 407 882 l 407 746 l 271 746 l 271 882 l 407 882 m 271 203 l 271 339 l 407 339 l 407 203 l 339 203 l 339 136 l 271 136 l 271 68 l 136 68 l 136 136 l 203 136 l 203 203 l 271 203 z "},"<":{"ha":814,"x_min":136,"x_max":678,"o":"m 475 136 l 475 203 l 407 203 l 407 271 l 339 271 l 339 339 l 271 339 l 271 407 l 203 407 l 203 475 l 136 475 l 136 678 l 203 678 l 203 746 l 271 746 l 271 814 l 339 814 l 339 882 l 407 882 l 407 949 l 475 949 l 475 1017 l 543 1017 l 543 1085 l 678 1085 l 678 949 l 610 949 l 610 882 l 543 882 l 543 814 l 475 814 l 475 746 l 407 746 l 407 678 l 339 678 l 339 610 l 271 610 l 271 543 l 339 543 l 339 475 l 407 475 l 407 407 l 475 407 l 475 339 l 543 339 l 543 271 l 610 271 l 610 203 l 678 203 l 678 68 l 543 68 l 543 136 l 475 136 z "},"=":{"ha":814,"x_min":68,"x_max":746,"o":"m 746 746 l 746 610 l 68 610 l 68 746 l 746 746 m 746 475 l 746 339 l 68 339 l 68 475 l 746 475 z "},">":{"ha":814,"x_min":136,"x_max":678,"o":"m 271 136 l 271 68 l 136 68 l 136 203 l 203 203 l 203 271 l 271 271 l 271 339 l 339 339 l 339 407 l 407 407 l 407 475 l 475 475 l 475 543 l 543 543 l 543 610 l 475 610 l 475 678 l 407 678 l 407 746 l 339 746 l 339 814 l 271 814 l 271 882 l 203 882 l 203 949 l 136 949 l 136 1085 l 271 1085 l 271 1017 l 339 1017 l 339 949 l 407 949 l 407 882 l 475 882 l 475 814 l 543 814 l 543 746 l 610 746 l 610 678 l 678 678 l 678 475 l 610 475 l 610 407 l 543 407 l 543 339 l 475 339 l 475 271 l 407 271 l 407 203 l 339 203 l 339 136 l 271 136 z "},"?":{"ha":814,"x_min":68,"x_max":746,"o":"m 475 203 l 475 68 l 339 68 l 339 203 l 475 203 m 475 543 l 475 610 l 543 610 l 543 678 l 610 678 l 610 814 l 543 814 l 543 882 l 271 882 l 271 814 l 203 814 l 203 746 l 68 746 l 68 882 l 136 882 l 136 949 l 203 949 l 203 1017 l 610 1017 l 610 949 l 678 949 l 678 882 l 746 882 l 746 610 l 678 610 l 678 543 l 610 543 l 610 475 l 543 475 l 543 407 l 475 407 l 475 339 l 339 339 l 339 475 l 407 475 l 407 543 l 475 543 z "},"@":{"ha":814,"x_min":68,"x_max":746,"o":"m 407 678 l 339 678 l 339 407 l 407 407 l 407 678 m 543 339 l 543 407 l 610 407 l 610 475 l 678 475 l 678 746 l 610 746 l 610 814 l 543 814 l 543 882 l 271 882 l 271 814 l 203 814 l 203 746 l 136 746 l 136 339 l 203 339 l 203 271 l 271 271 l 271 203 l 543 203 l 543 271 l 678 271 l 678 203 l 610 203 l 610 136 l 203 136 l 203 203 l 136 203 l 136 271 l 68 271 l 68 814 l 136 814 l 136 882 l 203 882 l 203 949 l 610 949 l 610 882 l 678 882 l 678 814 l 746 814 l 746 407 l 678 407 l 678 339 l 543 339 m 543 407 l 475 407 l 475 339 l 271 339 l 271 407 l 203 407 l 203 678 l 271 678 l 271 746 l 407 746 l 407 678 l 475 678 l 475 746 l 543 746 l 543 407 z "},"A":{"ha":814,"x_min":68,"x_max":746,"o":"m 203 475 l 610 475 l 610 678 l 543 678 l 543 746 l 475 746 l 475 814 l 339 814 l 339 746 l 271 746 l 271 678 l 203 678 l 203 475 m 203 68 l 68 68 l 68 746 l 136 746 l 136 814 l 203 814 l 203 882 l 271 882 l 271 949 l 339 949 l 339 1017 l 475 1017 l 475 949 l 543 949 l 543 882 l 610 882 l 610 814 l 678 814 l 678 746 l 746 746 l 746 68 l 610 68 l 610 339 l 203 339 l 203 68 z "},"B":{"ha":814,"x_min":68,"x_max":746,"o":"m 203 610 l 543 610 l 543 678 l 610 678 l 610 814 l 543 814 l 543 882 l 203 882 l 203 610 m 68 68 l 68 1017 l 610 1017 l 610 949 l 678 949 l 678 882 l 746 882 l 746 610 l 678 610 l 678 475 l 746 475 l 746 203 l 678 203 l 678 136 l 610 136 l 610 68 l 68 68 m 203 203 l 543 203 l 543 271 l 610 271 l 610 407 l 543 407 l 543 475 l 203 475 l 203 203 z "},"C":{"ha":814,"x_min":68,"x_max":746,"o":"m 271 203 l 543 203 l 543 271 l 610 271 l 610 339 l 746 339 l 746 203 l 678 203 l 678 136 l 610 136 l 610 68 l 203 68 l 203 136 l 136 136 l 136 203 l 68 203 l 68 882 l 136 882 l 136 949 l 203 949 l 203 1017 l 610 1017 l 610 949 l 678 949 l 678 882 l 746 882 l 746 746 l 610 746 l 610 814 l 543 814 l 543 882 l 271 882 l 271 814 l 203 814 l 203 271 l 271 271 l 271 203 z "},"D":{"ha":814,"x_min":68,"x_max":746,"o":"m 203 882 l 203 203 l 543 203 l 543 271 l 610 271 l 610 814 l 543 814 l 543 882 l 203 882 m 68 68 l 68 1017 l 610 1017 l 610 949 l 678 949 l 678 882 l 746 882 l 746 203 l 678 203 l 678 136 l 610 136 l 610 68 l 68 68 z "},"E":{"ha":814,"x_min":68,"x_max":746,"o":"m 746 1017 l 746 882 l 203 882 l 203 610 l 610 610 l 610 475 l 203 475 l 203 203 l 746 203 l 746 68 l 68 68 l 68 1017 l 746 1017 z "},"F":{"ha":814,"x_min":68,"x_max":746,"o":"m 746 1017 l 746 882 l 203 882 l 203 610 l 610 610 l 610 475 l 203 475 l 203 68 l 68 68 l 68 1017 l 746 1017 z "},"G":{"ha":814,"x_min":68,"x_max":746,"o":"m 678 882 l 746 882 l 746 746 l 610 746 l 610 814 l 543 814 l 543 882 l 271 882 l 271 814 l 203 814 l 203 271 l 271 271 l 271 203 l 543 203 l 543 271 l 610 271 l 610 475 l 407 475 l 407 610 l 746 610 l 746 203 l 678 203 l 678 136 l 610 136 l 610 68 l 203 68 l 203 136 l 136 136 l 136 203 l 68 203 l 68 882 l 136 882 l 136 949 l 203 949 l 203 1017 l 610 1017 l 610 949 l 678 949 l 678 882 z "},"H":{"ha":814,"x_min":68,"x_max":746,"o":"m 203 475 l 203 68 l 68 68 l 68 1017 l 203 1017 l 203 610 l 610 610 l 610 1017 l 746 1017 l 746 68 l 610 68 l 610 475 l 203 475 z "},"I":{"ha":814,"x_min":203,"x_max":610,"o":"m 203 68 l 203 203 l 339 203 l 339 882 l 203 882 l 203 1017 l 610 1017 l 610 882 l 475 882 l 475 203 l 610 203 l 610 68 l 203 68 z "},"J":{"ha":814,"x_min":68,"x_max":746,"o":"m 136 203 l 68 203 l 68 339 l 203 339 l 203 271 l 271 271 l 271 203 l 407 203 l 407 271 l 475 271 l 475 882 l 339 882 l 339 1017 l 746 1017 l 746 882 l 610 882 l 610 203 l 543 203 l 543 136 l 475 136 l 475 68 l 203 68 l 203 136 l 136 136 l 136 203 z "},"K":{"ha":814,"x_min":68,"x_max":746,"o":"m 203 475 l 203 68 l 68 68 l 68 1017 l 203 1017 l 203 610 l 271 610 l 271 678 l 339 678 l 339 746 l 407 746 l 407 814 l 475 814 l 475 882 l 543 882 l 543 949 l 610 949 l 610 1017 l 746 1017 l 746 882 l 678 882 l 678 814 l 610 814 l 610 746 l 543 746 l 543 678 l 475 678 l 475 610 l 407 610 l 407 475 l 475 475 l 475 407 l 543 407 l 543 339 l 610 339 l 610 271 l 678 271 l 678 203 l 746 203 l 746 68 l 610 68 l 610 136 l 543 136 l 543 203 l 475 203 l 475 271 l 407 271 l 407 339 l 339 339 l 339 407 l 271 407 l 271 475 l 203 475 z "},"L":{"ha":814,"x_min":68,"x_max":746,"o":"m 68 68 l 68 1017 l 203 1017 l 203 203 l 746 203 l 746 68 l 68 68 z "},"M":{"ha":814,"x_min":68,"x_max":746,"o":"m 203 68 l 68 68 l 68 1017 l 203 1017 l 203 882 l 271 882 l 271 814 l 339 814 l 339 746 l 475 746 l 475 814 l 543 814 l 543 882 l 610 882 l 610 1017 l 746 1017 l 746 68 l 610 68 l 610 678 l 543 678 l 543 610 l 475 610 l 475 475 l 339 475 l 339 610 l 271 610 l 271 678 l 203 678 l 203 68 z "},"N":{"ha":814,"x_min":68,"x_max":746,"o":"m 203 610 l 203 68 l 68 68 l 68 1017 l 203 1017 l 203 814 l 271 814 l 271 746 l 339 746 l 339 678 l 407 678 l 407 610 l 475 610 l 475 543 l 543 543 l 543 475 l 610 475 l 610 1017 l 746 1017 l 746 68 l 610 68 l 610 271 l 543 271 l 543 339 l 475 339 l 475 407 l 407 407 l 407 475 l 339 475 l 339 543 l 271 543 l 271 610 l 203 610 z "},"O":{"ha":814,"x_min":68,"x_max":746,"o":"m 543 882 l 271 882 l 271 814 l 203 814 l 203 271 l 271 271 l 271 203 l 543 203 l 543 271 l 610 271 l 610 814 l 543 814 l 543 882 m 203 949 l 203 1017 l 610 1017 l 610 949 l 678 949 l 678 882 l 746 882 l 746 203 l 678 203 l 678 136 l 610 136 l 610 68 l 203 68 l 203 136 l 136 136 l 136 203 l 68 203 l 68 882 l 136 882 l 136 949 l 203 949 z "},"P":{"ha":814,"x_min":68,"x_max":746,"o":"m 203 882 l 203 610 l 543 610 l 543 678 l 610 678 l 610 814 l 543 814 l 543 882 l 203 882 m 203 475 l 203 68 l 68 68 l 68 1017 l 610 1017 l 610 949 l 678 949 l 678 882 l 746 882 l 746 610 l 678 610 l 678 543 l 610 543 l 610 475 l 203 475 z "},"Q":{"ha":814,"x_min":68,"x_max":746,"o":"m 203 814 l 203 271 l 271 271 l 271 203 l 475 203 l 475 271 l 407 271 l 407 339 l 339 339 l 339 475 l 475 475 l 475 407 l 543 407 l 543 339 l 610 339 l 610 814 l 543 814 l 543 882 l 271 882 l 271 814 l 203 814 m 136 203 l 68 203 l 68 882 l 136 882 l 136 949 l 203 949 l 203 1017 l 610 1017 l 610 949 l 678 949 l 678 882 l 746 882 l 746 271 l 678 271 l 678 203 l 746 203 l 746 68 l 610 68 l 610 136 l 475 136 l 475 68 l 203 68 l 203 136 l 136 136 l 136 203 z "},"R":{"ha":814,"x_min":68,"x_max":746,"o":"m 203 882 l 203 610 l 543 610 l 543 678 l 610 678 l 610 814 l 543 814 l 543 882 l 203 882 m 271 475 l 203 475 l 203 68 l 68 68 l 68 1017 l 610 1017 l 610 949 l 678 949 l 678 882 l 746 882 l 746 610 l 678 610 l 678 543 l 610 543 l 610 475 l 475 475 l 475 407 l 543 407 l 543 339 l 610 339 l 610 271 l 678 271 l 678 203 l 746 203 l 746 68 l 610 68 l 610 136 l 543 136 l 543 203 l 475 203 l 475 271 l 407 271 l 407 339 l 339 339 l 339 407 l 271 407 l 271 475 z "},"S":{"ha":814,"x_min":68,"x_max":746,"o":"m 678 882 l 746 882 l 746 746 l 610 746 l 610 814 l 543 814 l 543 882 l 271 882 l 271 814 l 203 814 l 203 678 l 271 678 l 271 610 l 610 610 l 610 543 l 678 543 l 678 475 l 746 475 l 746 203 l 678 203 l 678 136 l 610 136 l 610 68 l 203 68 l 203 136 l 136 136 l 136 203 l 68 203 l 68 339 l 203 339 l 203 271 l 271 271 l 271 203 l 543 203 l 543 271 l 610 271 l 610 407 l 543 407 l 543 475 l 203 475 l 203 543 l 136 543 l 136 610 l 68 610 l 68 882 l 136 882 l 136 949 l 203 949 l 203 1017 l 610 1017 l 610 949 l 678 949 l 678 882 z "},"T":{"ha":814,"x_min":68,"x_max":746,"o":"m 339 882 l 68 882 l 68 1017 l 746 1017 l 746 882 l 475 882 l 475 68 l 339 68 l 339 882 z "},"U":{"ha":814,"x_min":68,"x_max":746,"o":"m 136 203 l 68 203 l 68 1017 l 203 1017 l 203 271 l 271 271 l 271 203 l 543 203 l 543 271 l 610 271 l 610 1017 l 746 1017 l 746 203 l 678 203 l 678 136 l 610 136 l 610 68 l 203 68 l 203 136 l 136 136 l 136 203 z "},"V":{"ha":814,"x_min":68,"x_max":746,"o":"m 136 339 l 68 339 l 68 1017 l 203 1017 l 203 407 l 271 407 l 271 339 l 339 339 l 339 271 l 475 271 l 475 339 l 543 339 l 543 407 l 610 407 l 610 1017 l 746 1017 l 746 339 l 678 339 l 678 271 l 610 271 l 610 203 l 543 203 l 543 136 l 475 136 l 475 68 l 339 68 l 339 136 l 271 136 l 271 203 l 203 203 l 203 271 l 136 271 l 136 339 z "},"W":{"ha":814,"x_min":68,"x_max":746,"o":"m 68 1017 l 203 1017 l 203 271 l 339 271 l 339 610 l 475 610 l 475 271 l 610 271 l 610 1017 l 746 1017 l 746 203 l 678 203 l 678 136 l 610 136 l 610 68 l 475 68 l 475 136 l 339 136 l 339 68 l 203 68 l 203 136 l 136 136 l 136 203 l 68 203 l 68 1017 z "},"X":{"ha":814,"x_min":68,"x_max":746,"o":"m 203 271 l 203 68 l 68 68 l 68 339 l 136 339 l 136 407 l 203 407 l 203 475 l 271 475 l 271 610 l 203 610 l 203 678 l 136 678 l 136 746 l 68 746 l 68 1017 l 203 1017 l 203 814 l 271 814 l 271 746 l 339 746 l 339 678 l 475 678 l 475 746 l 543 746 l 543 814 l 610 814 l 610 1017 l 746 1017 l 746 746 l 678 746 l 678 678 l 610 678 l 610 610 l 543 610 l 543 475 l 610 475 l 610 407 l 678 407 l 678 339 l 746 339 l 746 68 l 610 68 l 610 271 l 543 271 l 543 339 l 475 339 l 475 407 l 339 407 l 339 339 l 271 339 l 271 271 l 203 271 z "},"Y":{"ha":814,"x_min":68,"x_max":746,"o":"m 475 68 l 339 68 l 339 407 l 271 407 l 271 475 l 203 475 l 203 543 l 136 543 l 136 610 l 68 610 l 68 1017 l 203 1017 l 203 678 l 271 678 l 271 610 l 339 610 l 339 543 l 475 543 l 475 610 l 543 610 l 543 678 l 610 678 l 610 1017 l 746 1017 l 746 610 l 678 610 l 678 543 l 610 543 l 610 475 l 543 475 l 543 407 l 475 407 l 475 68 z "},"Z":{"ha":814,"x_min":68,"x_max":746,"o":"m 610 814 l 610 882 l 68 882 l 68 1017 l 746 1017 l 746 746 l 678 746 l 678 678 l 610 678 l 610 610 l 543 610 l 543 543 l 475 543 l 475 475 l 407 475 l 407 407 l 339 407 l 339 339 l 271 339 l 271 271 l 203 271 l 203 203 l 746 203 l 746 68 l 68 68 l 68 339 l 136 339 l 136 407 l 203 407 l 203 475 l 271 475 l 271 543 l 339 543 l 339 610 l 407 610 l 407 678 l 475 678 l 475 746 l 543 746 l 543 814 l 610 814 z "},"[":{"ha":814,"x_min":271,"x_max":678,"o":"m 678 1153 l 678 1017 l 407 1017 l 407 203 l 678 203 l 678 68 l 271 68 l 271 1153 l 678 1153 z "},"\\":{"ha":814,"x_min":68,"x_max":746,"o":"m 203 814 l 271 814 l 271 746 l 339 746 l 339 678 l 407 678 l 407 610 l 475 610 l 475 543 l 543 543 l 543 475 l 610 475 l 610 407 l 678 407 l 678 339 l 746 339 l 746 68 l 610 68 l 610 271 l 543 271 l 543 339 l 475 339 l 475 407 l 407 407 l 407 475 l 339 475 l 339 543 l 271 543 l 271 610 l 203 610 l 203 678 l 136 678 l 136 746 l 68 746 l 68 1017 l 203 1017 l 203 814 z "},"]":{"ha":814,"x_min":136,"x_max":543,"o":"m 407 1017 l 136 1017 l 136 1153 l 543 1153 l 543 68 l 136 68 l 136 203 l 407 203 l 407 1017 z "},"^":{"ha":814,"x_min":68,"x_max":746,"o":"m 475 1017 l 475 949 l 543 949 l 543 882 l 610 882 l 610 814 l 678 814 l 678 746 l 746 746 l 746 678 l 543 678 l 543 746 l 475 746 l 475 814 l 339 814 l 339 746 l 271 746 l 271 678 l 68 678 l 68 746 l 136 746 l 136 814 l 203 814 l 203 882 l 271 882 l 271 949 l 339 949 l 339 1017 l 475 1017 z "},"_":{"ha":814,"x_min":0,"x_max":814,"o":"m 0 0 l 0 136 l 814 136 l 814 0 l 0 0 z "},"`":{"ha":814,"x_min":203,"x_max":543,"o":"m 407 1017 l 407 949 l 475 949 l 475 882 l 543 882 l 543 814 l 407 814 l 407 882 l 271 882 l 271 949 l 203 949 l 203 1017 l 407 1017 z "},"a":{"ha":814,"x_min":68,"x_max":746,"o":"m 271 203 l 543 203 l 543 271 l 610 271 l 610 407 l 543 407 l 543 475 l 271 475 l 271 407 l 203 407 l 203 271 l 271 271 l 271 203 m 203 68 l 203 136 l 136 136 l 136 203 l 68 203 l 68 475 l 136 475 l 136 543 l 203 543 l 203 610 l 543 610 l 543 543 l 610 543 l 610 678 l 543 678 l 543 746 l 203 746 l 203 882 l 610 882 l 610 814 l 678 814 l 678 746 l 746 746 l 746 68 l 610 68 l 610 136 l 543 136 l 543 68 l 203 68 z "},"b":{"ha":814,"x_min":68,"x_max":746,"o":"m 407 203 l 475 203 l 475 271 l 543 271 l 543 339 l 610 339 l 610 543 l 543 543 l 543 610 l 475 610 l 475 678 l 407 678 l 407 610 l 339 610 l 339 543 l 271 543 l 271 339 l 339 339 l 339 271 l 407 271 l 407 203 m 203 203 l 203 68 l 68 68 l 68 1017 l 203 1017 l 203 678 l 271 678 l 271 746 l 339 746 l 339 814 l 543 814 l 543 746 l 610 746 l 610 678 l 678 678 l 678 610 l 746 610 l 746 271 l 678 271 l 678 203 l 610 203 l 610 136 l 543 136 l 543 68 l 339 68 l 339 136 l 271 136 l 271 203 l 203 203 z "},"c":{"ha":814,"x_min":68,"x_max":746,"o":"m 610 271 l 610 339 l 746 339 l 746 203 l 678 203 l 678 136 l 610 136 l 610 68 l 203 68 l 203 136 l 136 136 l 136 203 l 68 203 l 68 678 l 136 678 l 136 746 l 203 746 l 203 814 l 610 814 l 610 746 l 678 746 l 678 678 l 746 678 l 746 543 l 610 543 l 610 610 l 543 610 l 543 678 l 271 678 l 271 610 l 203 610 l 203 271 l 271 271 l 271 203 l 543 203 l 543 271 l 610 271 z "},"d":{"ha":814,"x_min":68,"x_max":746,"o":"m 610 678 l 610 1017 l 746 1017 l 746 68 l 610 68 l 610 203 l 543 203 l 543 136 l 475 136 l 475 68 l 271 68 l 271 136 l 203 136 l 203 203 l 136 203 l 136 271 l 68 271 l 68 610 l 136 610 l 136 678 l 203 678 l 203 746 l 271 746 l 271 814 l 475 814 l 475 746 l 543 746 l 543 678 l 610 678 m 271 271 l 339 271 l 339 203 l 407 203 l 407 271 l 475 271 l 475 339 l 543 339 l 543 543 l 475 543 l 475 610 l 407 610 l 407 678 l 339 678 l 339 610 l 271 610 l 271 543 l 203 543 l 203 339 l 271 339 l 271 271 z "},"e":{"ha":814,"x_min":68,"x_max":746,"o":"m 203 610 l 203 543 l 610 543 l 610 610 l 543 610 l 543 678 l 271 678 l 271 610 l 203 610 m 746 271 l 746 203 l 678 203 l 678 136 l 610 136 l 610 68 l 203 68 l 203 136 l 136 136 l 136 203 l 68 203 l 68 678 l 136 678 l 136 746 l 203 746 l 203 814 l 610 814 l 610 746 l 678 746 l 678 678 l 746 678 l 746 475 l 678 475 l 678 407 l 203 407 l 203 271 l 271 271 l 271 203 l 543 203 l 543 271 l 746 271 z "},"f":{"ha":814,"x_min":136,"x_max":678,"o":"m 475 68 l 339 68 l 339 678 l 136 678 l 136 814 l 339 814 l 339 949 l 407 949 l 407 1017 l 678 1017 l 678 882 l 475 882 l 475 814 l 678 814 l 678 678 l 475 678 l 475 68 z "},"g":{"ha":814,"x_min":68,"x_max":746,"o":"m 610 610 l 610 678 l 543 678 l 543 746 l 271 746 l 271 678 l 203 678 l 203 610 l 271 610 l 271 543 l 543 543 l 543 610 l 610 610 m 203 136 l 136 136 l 136 271 l 271 271 l 271 203 l 543 203 l 543 271 l 610 271 l 610 475 l 543 475 l 543 407 l 203 407 l 203 475 l 136 475 l 136 543 l 68 543 l 68 746 l 136 746 l 136 814 l 203 814 l 203 882 l 610 882 l 610 814 l 678 814 l 678 746 l 746 746 l 746 203 l 678 203 l 678 136 l 610 136 l 610 68 l 203 68 l 203 136 z "},"h":{"ha":814,"x_min":68,"x_max":746,"o":"m 203 475 l 203 68 l 68 68 l 68 1017 l 203 1017 l 203 678 l 271 678 l 271 746 l 339 746 l 339 814 l 543 814 l 543 746 l 610 746 l 610 678 l 678 678 l 678 610 l 746 610 l 746 68 l 610 68 l 610 543 l 543 543 l 543 610 l 475 610 l 475 678 l 407 678 l 407 610 l 339 610 l 339 543 l 271 543 l 271 475 l 203 475 z "},"i":{"ha":814,"x_min":203,"x_max":610,"o":"m 475 949 l 475 814 l 339 814 l 339 949 l 475 949 m 543 203 l 610 203 l 610 68 l 475 68 l 475 136 l 407 136 l 407 203 l 339 203 l 339 543 l 203 543 l 203 678 l 475 678 l 475 271 l 543 271 l 543 203 z "},"j":{"ha":814,"x_min":203,"x_max":610,"o":"m 610 1085 l 610 949 l 475 949 l 475 1085 l 610 1085 m 610 203 l 543 203 l 543 136 l 475 136 l 475 68 l 203 68 l 203 203 l 407 203 l 407 271 l 475 271 l 475 678 l 339 678 l 339 814 l 610 814 l 610 203 z "},"k":{"ha":814,"x_min":68,"x_max":746,"o":"m 203 203 l 203 68 l 68 68 l 68 1017 l 203 1017 l 203 407 l 271 407 l 271 475 l 339 475 l 339 543 l 407 543 l 407 610 l 475 610 l 475 678 l 543 678 l 543 746 l 610 746 l 610 814 l 746 814 l 746 678 l 678 678 l 678 610 l 610 610 l 610 543 l 543 543 l 543 475 l 475 475 l 475 407 l 543 407 l 543 339 l 610 339 l 610 271 l 678 271 l 678 203 l 746 203 l 746 68 l 610 68 l 610 136 l 543 136 l 543 203 l 475 203 l 475 271 l 407 271 l 407 339 l 339 339 l 339 271 l 271 271 l 271 203 l 203 203 z "},"l":{"ha":814,"x_min":339,"x_max":475,"o":"m 475 1017 l 475 68 l 339 68 l 339 1017 l 475 1017 z "},"m":{"ha":814,"x_min":68,"x_max":746,"o":"m 203 610 l 203 68 l 68 68 l 68 814 l 203 814 l 203 746 l 271 746 l 271 814 l 610 814 l 610 746 l 678 746 l 678 678 l 746 678 l 746 68 l 610 68 l 610 610 l 543 610 l 543 678 l 475 678 l 475 68 l 339 68 l 339 678 l 271 678 l 271 610 l 203 610 z "},"n":{"ha":814,"x_min":68,"x_max":746,"o":"m 203 610 l 203 68 l 68 68 l 68 814 l 203 814 l 203 746 l 271 746 l 271 814 l 610 814 l 610 746 l 678 746 l 678 678 l 746 678 l 746 68 l 610 68 l 610 610 l 543 610 l 543 678 l 271 678 l 271 610 l 203 610 z "},"o":{"ha":814,"x_min":68,"x_max":746,"o":"m 271 203 l 543 203 l 543 271 l 610 271 l 610 610 l 543 610 l 543 678 l 271 678 l 271 610 l 203 610 l 203 271 l 271 271 l 271 203 m 203 68 l 203 136 l 136 136 l 136 203 l 68 203 l 68 678 l 136 678 l 136 746 l 203 746 l 203 814 l 610 814 l 610 746 l 678 746 l 678 678 l 746 678 l 746 203 l 678 203 l 678 136 l 610 136 l 610 68 l 203 68 z "},"p":{"ha":814,"x_min":68,"x_max":746,"o":"m 610 678 l 543 678 l 543 746 l 339 746 l 339 678 l 271 678 l 271 475 l 339 475 l 339 407 l 543 407 l 543 475 l 610 475 l 610 678 m 203 339 l 203 68 l 68 68 l 68 882 l 203 882 l 203 814 l 271 814 l 271 882 l 610 882 l 610 814 l 678 814 l 678 746 l 746 746 l 746 407 l 678 407 l 678 339 l 610 339 l 610 271 l 271 271 l 271 339 l 203 339 z "},"q":{"ha":814,"x_min":68,"x_max":746,"o":"m 203 678 l 203 475 l 271 475 l 271 407 l 475 407 l 475 475 l 543 475 l 543 678 l 475 678 l 475 746 l 271 746 l 271 678 l 203 678 m 610 814 l 610 882 l 746 882 l 746 68 l 610 68 l 610 271 l 543 271 l 543 339 l 475 339 l 475 271 l 203 271 l 203 339 l 136 339 l 136 407 l 68 407 l 68 746 l 136 746 l 136 814 l 203 814 l 203 882 l 543 882 l 543 814 l 610 814 z "},"r":{"ha":814,"x_min":68,"x_max":746,"o":"m 203 475 l 203 68 l 68 68 l 68 814 l 203 814 l 203 678 l 271 678 l 271 746 l 339 746 l 339 814 l 610 814 l 610 746 l 678 746 l 678 678 l 746 678 l 746 543 l 610 543 l 610 610 l 543 610 l 543 678 l 407 678 l 407 610 l 339 610 l 339 543 l 271 543 l 271 475 l 203 475 z "},"s":{"ha":814,"x_min":68,"x_max":746,"o":"m 136 203 l 68 203 l 68 339 l 203 339 l 203 271 l 271 271 l 271 203 l 543 203 l 543 339 l 407 339 l 407 407 l 271 407 l 271 475 l 136 475 l 136 543 l 68 543 l 68 678 l 136 678 l 136 746 l 203 746 l 203 814 l 610 814 l 610 746 l 678 746 l 678 678 l 746 678 l 746 543 l 610 543 l 610 610 l 543 610 l 543 678 l 271 678 l 271 543 l 475 543 l 475 475 l 610 475 l 610 407 l 678 407 l 678 339 l 746 339 l 746 203 l 678 203 l 678 136 l 610 136 l 610 68 l 203 68 l 203 136 l 136 136 l 136 203 z "},"t":{"ha":814,"x_min":203,"x_max":610,"o":"m 543 203 l 610 203 l 610 68 l 475 68 l 475 136 l 407 136 l 407 203 l 339 203 l 339 678 l 203 678 l 203 814 l 339 814 l 339 1017 l 475 1017 l 475 814 l 610 814 l 610 678 l 475 678 l 475 271 l 543 271 l 543 203 z "},"u":{"ha":814,"x_min":68,"x_max":746,"o":"m 68 814 l 203 814 l 203 271 l 271 271 l 271 203 l 543 203 l 543 271 l 610 271 l 610 814 l 746 814 l 746 203 l 678 203 l 678 136 l 610 136 l 610 68 l 203 68 l 203 136 l 136 136 l 136 203 l 68 203 l 68 814 z "},"v":{"ha":814,"x_min":68,"x_max":746,"o":"m 68 814 l 203 814 l 203 407 l 271 407 l 271 339 l 339 339 l 339 271 l 475 271 l 475 339 l 543 339 l 543 407 l 610 407 l 610 814 l 746 814 l 746 339 l 678 339 l 678 271 l 610 271 l 610 203 l 543 203 l 543 136 l 475 136 l 475 68 l 339 68 l 339 136 l 271 136 l 271 203 l 203 203 l 203 271 l 136 271 l 136 339 l 68 339 l 68 814 z "},"w":{"ha":814,"x_min":68,"x_max":746,"o":"m 68 814 l 203 814 l 203 271 l 271 271 l 271 203 l 339 203 l 339 543 l 475 543 l 475 203 l 543 203 l 543 271 l 610 271 l 610 814 l 746 814 l 746 203 l 678 203 l 678 136 l 610 136 l 610 68 l 475 68 l 475 136 l 339 136 l 339 68 l 203 68 l 203 136 l 136 136 l 136 203 l 68 203 l 68 814 z "},"x":{"ha":814,"x_min":68,"x_max":746,"o":"m 203 136 l 203 68 l 68 68 l 68 203 l 136 203 l 136 271 l 203 271 l 203 339 l 271 339 l 271 407 l 339 407 l 339 475 l 271 475 l 271 543 l 203 543 l 203 610 l 136 610 l 136 678 l 68 678 l 68 814 l 203 814 l 203 746 l 271 746 l 271 678 l 339 678 l 339 610 l 475 610 l 475 678 l 543 678 l 543 746 l 610 746 l 610 814 l 746 814 l 746 678 l 678 678 l 678 610 l 610 610 l 610 543 l 543 543 l 543 475 l 475 475 l 475 407 l 543 407 l 543 339 l 610 339 l 610 271 l 678 271 l 678 203 l 746 203 l 746 68 l 610 68 l 610 136 l 543 136 l 543 203 l 475 203 l 475 271 l 339 271 l 339 203 l 271 203 l 271 136 l 203 136 z "},"y":{"ha":814,"x_min":68,"x_max":746,"o":"m 203 68 l 203 203 l 543 203 l 543 271 l 610 271 l 610 475 l 543 475 l 543 407 l 475 407 l 475 339 l 203 339 l 203 407 l 136 407 l 136 475 l 68 475 l 68 882 l 203 882 l 203 543 l 271 543 l 271 475 l 407 475 l 407 543 l 475 543 l 475 610 l 543 610 l 543 746 l 610 746 l 610 882 l 746 882 l 746 203 l 678 203 l 678 136 l 610 136 l 610 68 l 203 68 z "},"z":{"ha":814,"x_min":68,"x_max":746,"o":"m 339 203 l 746 203 l 746 68 l 68 68 l 68 203 l 136 203 l 136 271 l 203 271 l 203 339 l 271 339 l 271 407 l 339 407 l 339 475 l 407 475 l 407 543 l 475 543 l 475 610 l 543 610 l 543 678 l 68 678 l 68 814 l 746 814 l 746 610 l 678 610 l 678 543 l 610 543 l 610 475 l 543 475 l 543 407 l 475 407 l 475 339 l 407 339 l 407 271 l 339 271 l 339 203 z "},"{":{"ha":814,"x_min":203,"x_max":610,"o":"m 407 1017 l 407 1153 l 610 1153 l 610 949 l 475 949 l 475 678 l 407 678 l 407 543 l 475 543 l 475 271 l 610 271 l 610 68 l 407 68 l 407 203 l 339 203 l 339 543 l 203 543 l 203 678 l 339 678 l 339 1017 l 407 1017 z "},"|":{"ha":814,"x_min":339,"x_max":475,"o":"m 475 1153 l 475 68 l 339 68 l 339 1153 l 475 1153 z "},"}":{"ha":814,"x_min":203,"x_max":610,"o":"m 475 1017 l 475 678 l 610 678 l 610 543 l 475 543 l 475 203 l 407 203 l 407 68 l 203 68 l 203 271 l 339 271 l 339 543 l 407 543 l 407 678 l 339 678 l 339 949 l 203 949 l 203 1153 l 407 1153 l 407 1017 l 475 1017 z "},"~":{"ha":814,"x_min":68,"x_max":746,"o":"m 203 610 l 203 678 l 407 678 l 407 610 l 475 610 l 475 543 l 610 543 l 610 610 l 678 610 l 678 678 l 746 678 l 746 543 l 678 543 l 678 475 l 610 475 l 610 407 l 407 407 l 407 475 l 339 475 l 339 543 l 203 543 l 203 475 l 136 475 l 136 407 l 68 407 l 68 543 l 136 543 l 136 610 l 203 610 z "},"¢":{"ha":814,"x_min":68,"x_max":746,"o":"m 339 203 l 203 203 l 203 271 l 136 271 l 136 339 l 68 339 l 68 746 l 136 746 l 136 814 l 203 814 l 203 882 l 339 882 l 339 1017 l 475 1017 l 475 882 l 610 882 l 610 814 l 678 814 l 678 746 l 746 746 l 746 610 l 610 610 l 610 678 l 543 678 l 543 746 l 475 746 l 475 339 l 543 339 l 543 407 l 610 407 l 610 475 l 746 475 l 746 339 l 678 339 l 678 271 l 610 271 l 610 203 l 475 203 l 475 68 l 339 68 l 339 203 m 339 746 l 271 746 l 271 678 l 203 678 l 203 407 l 271 407 l 271 339 l 339 339 l 339 746 z "},"£":{"ha":814,"x_min":68,"x_max":746,"o":"m 271 203 l 746 203 l 746 68 l 68 68 l 68 203 l 136 203 l 136 271 l 203 271 l 203 610 l 68 610 l 68 746 l 203 746 l 203 1017 l 271 1017 l 271 1085 l 339 1085 l 339 1153 l 610 1153 l 610 1085 l 678 1085 l 678 1017 l 746 1017 l 746 882 l 610 882 l 610 949 l 543 949 l 543 1017 l 407 1017 l 407 949 l 339 949 l 339 746 l 610 746 l 610 610 l 339 610 l 339 271 l 271 271 l 271 203 z "},"¥":{"ha":814,"x_min":136,"x_max":678,"o":"m 475 203 l 475 68 l 339 68 l 339 203 l 136 203 l 136 271 l 339 271 l 339 407 l 136 407 l 136 475 l 339 475 l 339 543 l 271 543 l 271 678 l 203 678 l 203 814 l 136 814 l 136 1017 l 271 1017 l 271 814 l 339 814 l 339 678 l 475 678 l 475 814 l 543 814 l 543 1017 l 678 1017 l 678 814 l 610 814 l 610 678 l 543 678 l 543 543 l 475 543 l 475 475 l 678 475 l 678 407 l 475 407 l 475 271 l 678 271 l 678 203 l 475 203 z "},"¦":{"ha":814,"x_min":339,"x_max":475,"o":"m 475 1153 l 475 678 l 339 678 l 339 1153 l 475 1153 m 475 543 l 475 68 l 339 68 l 339 543 l 475 543 z "},"¨":{"ha":814,"x_min":203,"x_max":610,"o":"m 339 1017 l 339 882 l 203 882 l 203 1017 l 339 1017 m 610 1017 l 610 882 l 475 882 l 475 1017 l 610 1017 z "},"©":{"ha":814,"x_min":68,"x_max":746,"o":"m 271 271 l 543 271 l 543 339 l 610 339 l 610 407 l 678 407 l 678 746 l 610 746 l 610 814 l 543 814 l 543 882 l 271 882 l 271 814 l 203 814 l 203 746 l 136 746 l 136 407 l 203 407 l 203 339 l 271 339 l 271 271 m 610 271 l 610 203 l 203 203 l 203 271 l 136 271 l 136 339 l 68 339 l 68 814 l 136 814 l 136 882 l 203 882 l 203 949 l 610 949 l 610 882 l 678 882 l 678 814 l 746 814 l 746 339 l 678 339 l 678 271 l 610 271 m 543 814 l 543 746 l 407 746 l 407 678 l 339 678 l 339 475 l 407 475 l 407 407 l 543 407 l 543 339 l 339 339 l 339 407 l 271 407 l 271 746 l 339 746 l 339 814 l 543 814 z "},"ª":{"ha":814,"x_min":136,"x_max":610,"o":"m 610 407 l 610 271 l 136 271 l 136 407 l 610 407 m 475 543 l 475 746 l 271 746 l 271 678 l 203 678 l 203 610 l 271 610 l 271 543 l 475 543 m 203 949 l 203 1017 l 543 1017 l 543 949 l 610 949 l 610 475 l 543 475 l 543 543 l 475 543 l 475 475 l 203 475 l 203 543 l 136 543 l 136 746 l 203 746 l 203 814 l 475 814 l 475 949 l 271 949 l 271 882 l 136 882 l 136 949 l 203 949 z "},"«":{"ha":814,"x_min":68,"x_max":746,"o":"m 136 475 l 68 475 l 68 543 l 136 543 l 136 610 l 203 610 l 203 678 l 271 678 l 271 746 l 339 746 l 339 814 l 407 814 l 407 678 l 339 678 l 339 610 l 271 610 l 271 543 l 203 543 l 203 475 l 271 475 l 271 407 l 339 407 l 339 339 l 407 339 l 407 203 l 339 203 l 339 271 l 271 271 l 271 339 l 203 339 l 203 407 l 136 407 l 136 475 m 475 475 l 407 475 l 407 543 l 475 543 l 475 610 l 543 610 l 543 678 l 610 678 l 610 746 l 678 746 l 678 814 l 746 814 l 746 678 l 678 678 l 678 610 l 610 610 l 610 543 l 543 543 l 543 475 l 610 475 l 610 407 l 678 407 l 678 339 l 746 339 l 746 203 l 678 203 l 678 271 l 610 271 l 610 339 l 543 339 l 543 407 l 475 407 l 475 475 z "},"®":{"ha":814,"x_min":68,"x_max":746,"o":"m 475 882 l 475 814 l 339 814 l 339 678 l 475 678 l 475 610 l 339 610 l 339 475 l 271 475 l 271 882 l 475 882 m 475 814 l 543 814 l 543 678 l 475 678 l 475 814 m 475 610 l 543 610 l 543 475 l 475 475 l 475 610 m 271 407 l 543 407 l 543 475 l 610 475 l 610 543 l 678 543 l 678 814 l 610 814 l 610 882 l 543 882 l 543 949 l 271 949 l 271 882 l 203 882 l 203 814 l 136 814 l 136 543 l 203 543 l 203 475 l 271 475 l 271 407 m 610 407 l 610 339 l 203 339 l 203 407 l 136 407 l 136 475 l 68 475 l 68 882 l 136 882 l 136 949 l 203 949 l 203 1017 l 610 1017 l 610 949 l 678 949 l 678 882 l 746 882 l 746 475 l 678 475 l 678 407 l 610 407 z "},"°":{"ha":814,"x_min":68,"x_max":610,"o":"m 203 949 l 203 1017 l 475 1017 l 475 949 l 543 949 l 543 882 l 610 882 l 610 610 l 543 610 l 543 543 l 475 543 l 475 475 l 203 475 l 203 543 l 136 543 l 136 610 l 68 610 l 68 882 l 136 882 l 136 949 l 203 949 m 271 882 l 271 814 l 203 814 l 203 678 l 271 678 l 271 610 l 407 610 l 407 678 l 475 678 l 475 814 l 407 814 l 407 882 l 271 882 z "},"²":{"ha":814,"x_min":203,"x_max":543,"o":"m 203 1017 l 203 1085 l 271 1085 l 271 1153 l 475 1153 l 475 1085 l 543 1085 l 543 949 l 475 949 l 475 882 l 339 882 l 339 746 l 543 746 l 543 678 l 203 678 l 203 882 l 271 882 l 271 949 l 407 949 l 407 1085 l 339 1085 l 339 1017 l 203 1017 z "},"³":{"ha":814,"x_min":203,"x_max":543,"o":"m 475 1085 l 543 1085 l 543 949 l 475 949 l 475 882 l 543 882 l 543 746 l 475 746 l 475 678 l 271 678 l 271 746 l 203 746 l 203 814 l 339 814 l 339 746 l 407 746 l 407 882 l 339 882 l 339 949 l 407 949 l 407 1085 l 339 1085 l 339 1017 l 203 1017 l 203 1085 l 271 1085 l 271 1153 l 475 1153 l 475 1085 z "},"´":{"ha":814,"x_min":271,"x_max":610,"o":"m 610 1017 l 610 949 l 543 949 l 543 882 l 407 882 l 407 814 l 271 814 l 271 882 l 339 882 l 339 949 l 407 949 l 407 1017 l 610 1017 z "},"¹":{"ha":814,"x_min":271,"x_max":543,"o":"m 339 1017 l 271 1017 l 271 1085 l 339 1085 l 339 1153 l 475 1153 l 475 746 l 543 746 l 543 678 l 271 678 l 271 746 l 339 746 l 339 1017 z "},"º":{"ha":814,"x_min":136,"x_max":610,"o":"m 610 407 l 610 271 l 136 271 l 136 407 l 610 407 m 271 882 l 271 610 l 475 610 l 475 882 l 271 882 m 271 949 l 271 1017 l 475 1017 l 475 949 l 543 949 l 543 882 l 610 882 l 610 610 l 543 610 l 543 543 l 475 543 l 475 475 l 271 475 l 271 543 l 203 543 l 203 610 l 136 610 l 136 882 l 203 882 l 203 949 l 271 949 z "},"»":{"ha":814,"x_min":68,"x_max":746,"o":"m 678 407 l 610 407 l 610 339 l 543 339 l 543 271 l 475 271 l 475 203 l 407 203 l 407 339 l 475 339 l 475 407 l 543 407 l 543 475 l 610 475 l 610 543 l 543 543 l 543 610 l 475 610 l 475 678 l 407 678 l 407 814 l 475 814 l 475 746 l 543 746 l 543 678 l 610 678 l 610 610 l 678 610 l 678 543 l 746 543 l 746 475 l 678 475 l 678 407 m 339 407 l 271 407 l 271 339 l 203 339 l 203 271 l 136 271 l 136 203 l 68 203 l 68 339 l 136 339 l 136 407 l 203 407 l 203 475 l 271 475 l 271 543 l 203 543 l 203 610 l 136 610 l 136 678 l 68 678 l 68 814 l 136 814 l 136 746 l 203 746 l 203 678 l 271 678 l 271 610 l 339 610 l 339 543 l 407 543 l 407 475 l 339 475 l 339 407 z "},"¼":{"ha":814,"x_min":68,"x_max":746,"o":"m 136 1017 l 68 1017 l 68 1085 l 136 1085 l 136 1153 l 271 1153 l 271 746 l 339 746 l 339 678 l 68 678 l 68 746 l 136 746 l 136 1017 m 678 271 l 746 271 l 746 203 l 678 203 l 678 68 l 610 68 l 610 203 l 407 203 l 407 339 l 475 339 l 475 475 l 543 475 l 543 543 l 678 543 l 678 271 m 610 271 l 610 407 l 543 407 l 543 271 l 610 271 m 610 1085 l 610 1153 l 678 1153 l 678 1017 l 610 1017 l 610 882 l 543 882 l 543 746 l 475 746 l 475 610 l 407 610 l 407 543 l 339 543 l 339 407 l 271 407 l 271 271 l 203 271 l 203 136 l 136 136 l 136 68 l 68 68 l 68 203 l 136 203 l 136 339 l 203 339 l 203 475 l 271 475 l 271 610 l 339 610 l 339 678 l 407 678 l 407 814 l 475 814 l 475 949 l 543 949 l 543 1085 l 610 1085 z "},"½":{"ha":814,"x_min":68,"x_max":746,"o":"m 136 1017 l 68 1017 l 68 1085 l 136 1085 l 136 1153 l 271 1153 l 271 746 l 339 746 l 339 678 l 68 678 l 68 746 l 136 746 l 136 1017 m 407 407 l 407 475 l 475 475 l 475 543 l 678 543 l 678 475 l 746 475 l 746 339 l 678 339 l 678 271 l 543 271 l 543 136 l 746 136 l 746 68 l 407 68 l 407 271 l 475 271 l 475 339 l 610 339 l 610 475 l 543 475 l 543 407 l 407 407 m 610 1085 l 610 1153 l 678 1153 l 678 1017 l 610 1017 l 610 882 l 543 882 l 543 746 l 475 746 l 475 610 l 407 610 l 407 543 l 339 543 l 339 407 l 271 407 l 271 271 l 203 271 l 203 136 l 136 136 l 136 68 l 68 68 l 68 203 l 136 203 l 136 339 l 203 339 l 203 475 l 271 475 l 271 610 l 339 610 l 339 678 l 407 678 l 407 814 l 475 814 l 475 949 l 543 949 l 543 1085 l 610 1085 z "},"¾":{"ha":814,"x_min":68,"x_max":746,"o":"m 339 1085 l 407 1085 l 407 949 l 339 949 l 339 882 l 407 882 l 407 746 l 339 746 l 339 678 l 136 678 l 136 746 l 68 746 l 68 814 l 203 814 l 203 746 l 271 746 l 271 882 l 203 882 l 203 949 l 271 949 l 271 1085 l 203 1085 l 203 1017 l 68 1017 l 68 1085 l 136 1085 l 136 1153 l 339 1153 l 339 1085 m 678 271 l 746 271 l 746 203 l 678 203 l 678 68 l 610 68 l 610 203 l 407 203 l 407 339 l 475 339 l 475 475 l 543 475 l 543 543 l 678 543 l 678 271 m 610 271 l 610 407 l 543 407 l 543 271 l 610 271 m 678 1085 l 678 1153 l 746 1153 l 746 1017 l 678 1017 l 678 882 l 610 882 l 610 746 l 543 746 l 543 610 l 475 610 l 475 543 l 407 543 l 407 407 l 339 407 l 339 271 l 271 271 l 271 136 l 203 136 l 203 68 l 136 68 l 136 203 l 203 203 l 203 339 l 271 339 l 271 475 l 339 475 l 339 610 l 407 610 l 407 678 l 475 678 l 475 814 l 543 814 l 543 949 l 610 949 l 610 1085 l 678 1085 z "},"¿":{"ha":814,"x_min":68,"x_max":746,"o":"m 339 882 l 339 1017 l 475 1017 l 475 882 l 339 882 m 339 543 l 339 475 l 271 475 l 271 407 l 203 407 l 203 271 l 271 271 l 271 203 l 543 203 l 543 271 l 610 271 l 610 339 l 746 339 l 746 203 l 678 203 l 678 136 l 610 136 l 610 68 l 203 68 l 203 136 l 136 136 l 136 203 l 68 203 l 68 475 l 136 475 l 136 543 l 203 543 l 203 610 l 271 610 l 271 678 l 339 678 l 339 746 l 475 746 l 475 610 l 407 610 l 407 543 l 339 543 z "},"À":{"ha":814,"x_min":68,"x_max":746,"o":"m 203 68 l 68 68 l 68 610 l 136 610 l 136 678 l 203 678 l 203 746 l 271 746 l 271 814 l 339 814 l 339 882 l 475 882 l 475 814 l 543 814 l 543 746 l 610 746 l 610 678 l 678 678 l 678 610 l 746 610 l 746 68 l 610 68 l 610 271 l 203 271 l 203 68 m 610 407 l 610 543 l 543 543 l 543 610 l 475 610 l 475 678 l 339 678 l 339 610 l 271 610 l 271 543 l 203 543 l 203 407 l 610 407 m 407 1153 l 407 1085 l 475 1085 l 475 1017 l 543 1017 l 543 949 l 407 949 l 407 1017 l 271 1017 l 271 1085 l 203 1085 l 203 1153 l 407 1153 z "},"Á":{"ha":814,"x_min":68,"x_max":746,"o":"m 203 68 l 68 68 l 68 610 l 136 610 l 136 678 l 203 678 l 203 746 l 271 746 l 271 814 l 339 814 l 339 882 l 475 882 l 475 814 l 543 814 l 543 746 l 610 746 l 610 678 l 678 678 l 678 610 l 746 610 l 746 68 l 610 68 l 610 271 l 203 271 l 203 68 m 610 407 l 610 543 l 543 543 l 543 610 l 475 610 l 475 678 l 339 678 l 339 610 l 271 610 l 271 543 l 203 543 l 203 407 l 610 407 m 407 1085 l 407 1153 l 610 1153 l 610 1085 l 543 1085 l 543 1017 l 407 1017 l 407 949 l 271 949 l 271 1017 l 339 1017 l 339 1085 l 407 1085 z "},"Â":{"ha":814,"x_min":68,"x_max":746,"o":"m 475 1153 l 475 1085 l 543 1085 l 543 1017 l 610 1017 l 610 949 l 475 949 l 475 1017 l 339 1017 l 339 949 l 203 949 l 203 1017 l 271 1017 l 271 1085 l 339 1085 l 339 1153 l 475 1153 m 203 68 l 68 68 l 68 610 l 136 610 l 136 678 l 203 678 l 203 746 l 271 746 l 271 814 l 339 814 l 339 882 l 475 882 l 475 814 l 543 814 l 543 746 l 610 746 l 610 678 l 678 678 l 678 610 l 746 610 l 746 68 l 610 68 l 610 271 l 203 271 l 203 68 m 610 407 l 610 543 l 543 543 l 543 610 l 475 610 l 475 678 l 339 678 l 339 610 l 271 610 l 271 543 l 203 543 l 203 407 l 610 407 z "},"Ã":{"ha":814,"x_min":68,"x_max":746,"o":"m 543 1017 l 543 949 l 407 949 l 407 1017 l 271 1017 l 271 949 l 203 949 l 203 1085 l 271 1085 l 271 1153 l 407 1153 l 407 1085 l 543 1085 l 543 1153 l 610 1153 l 610 1017 l 543 1017 m 610 407 l 610 543 l 543 543 l 543 610 l 475 610 l 475 678 l 339 678 l 339 610 l 271 610 l 271 543 l 203 543 l 203 407 l 610 407 m 203 68 l 68 68 l 68 610 l 136 610 l 136 678 l 203 678 l 203 746 l 271 746 l 271 814 l 339 814 l 339 882 l 475 882 l 475 814 l 543 814 l 543 746 l 610 746 l 610 678 l 678 678 l 678 610 l 746 610 l 746 68 l 610 68 l 610 271 l 203 271 l 203 68 z "},"Ä":{"ha":814,"x_min":68,"x_max":746,"o":"m 203 68 l 68 68 l 68 610 l 136 610 l 136 678 l 203 678 l 203 746 l 271 746 l 271 814 l 339 814 l 339 882 l 475 882 l 475 814 l 543 814 l 543 746 l 610 746 l 610 678 l 678 678 l 678 610 l 746 610 l 746 68 l 610 68 l 610 271 l 203 271 l 203 68 m 610 407 l 610 543 l 543 543 l 543 610 l 475 610 l 475 678 l 339 678 l 339 610 l 271 610 l 271 543 l 203 543 l 203 407 l 610 407 m 203 1017 l 203 1153 l 339 1153 l 339 1017 l 203 1017 m 475 1153 l 610 1153 l 610 1017 l 475 1017 l 475 1153 z "},"Å":{"ha":814,"x_min":68,"x_max":746,"o":"m 203 68 l 68 68 l 68 610 l 136 610 l 136 678 l 203 678 l 203 746 l 271 746 l 271 814 l 339 814 l 339 882 l 475 882 l 475 814 l 543 814 l 543 746 l 610 746 l 610 678 l 678 678 l 678 610 l 746 610 l 746 68 l 610 68 l 610 271 l 203 271 l 203 68 m 610 407 l 610 543 l 543 543 l 543 610 l 475 610 l 475 678 l 339 678 l 339 610 l 271 610 l 271 543 l 203 543 l 203 407 l 610 407 m 271 1085 l 339 1085 l 339 949 l 271 949 l 271 1085 m 339 882 l 339 949 l 475 949 l 475 882 l 339 882 m 475 1153 l 475 1085 l 339 1085 l 339 1153 l 475 1153 m 543 949 l 475 949 l 475 1085 l 543 1085 l 543 949 z "},"Æ":{"ha":814,"x_min":68,"x_max":746,"o":"m 407 475 l 407 814 l 339 814 l 339 746 l 271 746 l 271 678 l 203 678 l 203 475 l 407 475 m 543 678 l 746 678 l 746 543 l 543 543 l 543 203 l 746 203 l 746 68 l 407 68 l 407 339 l 203 339 l 203 68 l 68 68 l 68 678 l 136 678 l 136 814 l 203 814 l 203 882 l 271 882 l 271 949 l 339 949 l 339 1017 l 407 1017 l 407 1085 l 746 1085 l 746 949 l 543 949 l 543 678 z "},"Ç":{"ha":814,"x_min":68,"x_max":746,"o":"m 678 882 l 746 882 l 746 746 l 610 746 l 610 814 l 543 814 l 543 882 l 271 882 l 271 814 l 203 814 l 203 475 l 271 475 l 271 407 l 543 407 l 543 475 l 610 475 l 610 543 l 746 543 l 746 407 l 678 407 l 678 339 l 610 339 l 610 271 l 543 271 l 543 203 l 475 203 l 475 136 l 407 136 l 407 68 l 203 68 l 203 136 l 271 136 l 271 203 l 339 203 l 339 271 l 203 271 l 203 339 l 136 339 l 136 407 l 68 407 l 68 882 l 136 882 l 136 949 l 203 949 l 203 1017 l 610 1017 l 610 949 l 678 949 l 678 882 z "},"È":{"ha":814,"x_min":68,"x_max":746,"o":"m 746 882 l 746 746 l 203 746 l 203 543 l 610 543 l 610 407 l 203 407 l 203 203 l 746 203 l 746 68 l 68 68 l 68 882 l 746 882 m 407 1153 l 407 1085 l 475 1085 l 475 1017 l 543 1017 l 543 949 l 407 949 l 407 1017 l 271 1017 l 271 1085 l 203 1085 l 203 1153 l 407 1153 z "},"É":{"ha":814,"x_min":68,"x_max":746,"o":"m 407 1085 l 407 1153 l 610 1153 l 610 1085 l 543 1085 l 543 1017 l 407 1017 l 407 949 l 271 949 l 271 1017 l 339 1017 l 339 1085 l 407 1085 m 746 882 l 746 746 l 203 746 l 203 543 l 610 543 l 610 407 l 203 407 l 203 203 l 746 203 l 746 68 l 68 68 l 68 882 l 746 882 z "},"Ê":{"ha":814,"x_min":68,"x_max":746,"o":"m 746 882 l 746 746 l 203 746 l 203 543 l 610 543 l 610 407 l 203 407 l 203 203 l 746 203 l 746 68 l 68 68 l 68 882 l 746 882 m 475 1153 l 475 1085 l 543 1085 l 543 1017 l 610 1017 l 610 949 l 475 949 l 475 1017 l 339 1017 l 339 949 l 203 949 l 203 1017 l 271 1017 l 271 1085 l 339 1085 l 339 1153 l 475 1153 z "},"Ë":{"ha":814,"x_min":68,"x_max":746,"o":"m 203 1017 l 203 1153 l 339 1153 l 339 1017 l 203 1017 m 610 1153 l 610 1017 l 475 1017 l 475 1153 l 610 1153 m 746 882 l 746 746 l 203 746 l 203 543 l 610 543 l 610 407 l 203 407 l 203 203 l 746 203 l 746 68 l 68 68 l 68 882 l 746 882 z "},"Ì":{"ha":814,"x_min":203,"x_max":610,"o":"m 203 68 l 203 203 l 339 203 l 339 746 l 203 746 l 203 882 l 610 882 l 610 746 l 475 746 l 475 203 l 610 203 l 610 68 l 203 68 m 407 1153 l 407 1085 l 475 1085 l 475 1017 l 543 1017 l 543 949 l 407 949 l 407 1017 l 271 1017 l 271 1085 l 203 1085 l 203 1153 l 407 1153 z "},"Í":{"ha":814,"x_min":203,"x_max":610,"o":"m 203 68 l 203 203 l 339 203 l 339 746 l 203 746 l 203 882 l 610 882 l 610 746 l 475 746 l 475 203 l 610 203 l 610 68 l 203 68 m 610 1153 l 610 1085 l 543 1085 l 543 1017 l 407 1017 l 407 949 l 271 949 l 271 1017 l 339 1017 l 339 1085 l 407 1085 l 407 1153 l 610 1153 z "},"Î":{"ha":814,"x_min":203,"x_max":610,"o":"m 203 68 l 203 203 l 339 203 l 339 746 l 203 746 l 203 882 l 610 882 l 610 746 l 475 746 l 475 203 l 610 203 l 610 68 l 203 68 m 339 1085 l 339 1153 l 475 1153 l 475 1085 l 543 1085 l 543 1017 l 610 1017 l 610 949 l 475 949 l 475 1017 l 339 1017 l 339 949 l 203 949 l 203 1017 l 271 1017 l 271 1085 l 339 1085 z "},"Ï":{"ha":814,"x_min":203,"x_max":610,"o":"m 203 68 l 203 203 l 339 203 l 339 746 l 203 746 l 203 882 l 610 882 l 610 746 l 475 746 l 475 203 l 610 203 l 610 68 l 203 68 m 339 1153 l 339 1017 l 203 1017 l 203 1153 l 339 1153 m 610 1153 l 610 1017 l 475 1017 l 475 1153 l 610 1153 z "},"Ð":{"ha":814,"x_min":68,"x_max":746,"o":"m 136 610 l 136 1017 l 610 1017 l 610 949 l 678 949 l 678 882 l 746 882 l 746 203 l 678 203 l 678 136 l 610 136 l 610 68 l 136 68 l 136 475 l 68 475 l 68 610 l 136 610 m 271 610 l 407 610 l 407 475 l 271 475 l 271 203 l 543 203 l 543 271 l 610 271 l 610 814 l 543 814 l 543 882 l 271 882 l 271 610 z "},"Ñ":{"ha":814,"x_min":68,"x_max":746,"o":"m 271 1085 l 271 1153 l 407 1153 l 407 1085 l 543 1085 l 543 1153 l 610 1153 l 610 1017 l 543 1017 l 543 949 l 407 949 l 407 1017 l 271 1017 l 271 949 l 203 949 l 203 1085 l 271 1085 m 203 543 l 203 68 l 68 68 l 68 882 l 203 882 l 203 746 l 271 746 l 271 678 l 339 678 l 339 610 l 407 610 l 407 543 l 475 543 l 475 475 l 543 475 l 543 407 l 610 407 l 610 882 l 746 882 l 746 68 l 610 68 l 610 203 l 543 203 l 543 271 l 475 271 l 475 339 l 407 339 l 407 407 l 339 407 l 339 475 l 271 475 l 271 543 l 203 543 z "},"Ò":{"ha":814,"x_min":68,"x_max":746,"o":"m 407 1153 l 407 1085 l 475 1085 l 475 1017 l 543 1017 l 543 949 l 407 949 l 407 1017 l 271 1017 l 271 1085 l 203 1085 l 203 1153 l 407 1153 m 271 203 l 543 203 l 543 271 l 610 271 l 610 678 l 543 678 l 543 746 l 271 746 l 271 678 l 203 678 l 203 271 l 271 271 l 271 203 m 203 68 l 203 136 l 136 136 l 136 203 l 68 203 l 68 746 l 136 746 l 136 814 l 203 814 l 203 882 l 610 882 l 610 814 l 678 814 l 678 746 l 746 746 l 746 203 l 678 203 l 678 136 l 610 136 l 610 68 l 203 68 z "},"Ó":{"ha":814,"x_min":68,"x_max":746,"o":"m 407 1085 l 407 1153 l 610 1153 l 610 1085 l 543 1085 l 543 1017 l 407 1017 l 407 949 l 271 949 l 271 1017 l 339 1017 l 339 1085 l 407 1085 m 271 203 l 543 203 l 543 271 l 610 271 l 610 678 l 543 678 l 543 746 l 271 746 l 271 678 l 203 678 l 203 271 l 271 271 l 271 203 m 203 68 l 203 136 l 136 136 l 136 203 l 68 203 l 68 746 l 136 746 l 136 814 l 203 814 l 203 882 l 610 882 l 610 814 l 678 814 l 678 746 l 746 746 l 746 203 l 678 203 l 678 136 l 610 136 l 610 68 l 203 68 z "},"Ô":{"ha":814,"x_min":68,"x_max":746,"o":"m 271 203 l 543 203 l 543 271 l 610 271 l 610 678 l 543 678 l 543 746 l 271 746 l 271 678 l 203 678 l 203 271 l 271 271 l 271 203 m 203 68 l 203 136 l 136 136 l 136 203 l 68 203 l 68 746 l 136 746 l 136 814 l 203 814 l 203 882 l 610 882 l 610 814 l 678 814 l 678 746 l 746 746 l 746 203 l 678 203 l 678 136 l 610 136 l 610 68 l 203 68 m 475 1153 l 475 1085 l 543 1085 l 543 1017 l 610 1017 l 610 949 l 475 949 l 475 1017 l 339 1017 l 339 949 l 203 949 l 203 1017 l 271 1017 l 271 1085 l 339 1085 l 339 1153 l 475 1153 z "},"Õ":{"ha":814,"x_min":68,"x_max":746,"o":"m 271 203 l 543 203 l 543 271 l 610 271 l 610 678 l 543 678 l 543 746 l 271 746 l 271 678 l 203 678 l 203 271 l 271 271 l 271 203 m 203 68 l 203 136 l 136 136 l 136 203 l 68 203 l 68 746 l 136 746 l 136 814 l 203 814 l 203 882 l 610 882 l 610 814 l 678 814 l 678 746 l 746 746 l 746 203 l 678 203 l 678 136 l 610 136 l 610 68 l 203 68 m 543 1017 l 543 949 l 407 949 l 407 1017 l 271 1017 l 271 949 l 203 949 l 203 1085 l 271 1085 l 271 1153 l 407 1153 l 407 1085 l 543 1085 l 543 1153 l 610 1153 l 610 1017 l 543 1017 z "},"Ö":{"ha":814,"x_min":68,"x_max":746,"o":"m 271 203 l 543 203 l 543 271 l 610 271 l 610 678 l 543 678 l 543 746 l 271 746 l 271 678 l 203 678 l 203 271 l 271 271 l 271 203 m 203 68 l 203 136 l 136 136 l 136 203 l 68 203 l 68 746 l 136 746 l 136 814 l 203 814 l 203 882 l 610 882 l 610 814 l 678 814 l 678 746 l 746 746 l 746 203 l 678 203 l 678 136 l 610 136 l 610 68 l 203 68 m 339 1153 l 339 1017 l 203 1017 l 203 1153 l 339 1153 m 610 1153 l 610 1017 l 475 1017 l 475 1153 l 610 1153 z "},"Ø":{"ha":814,"x_min":68,"x_max":746,"o":"m 339 203 l 543 203 l 543 271 l 610 271 l 610 746 l 543 746 l 543 610 l 475 610 l 475 475 l 407 475 l 407 339 l 339 339 l 339 203 m 475 882 l 271 882 l 271 814 l 203 814 l 203 339 l 271 339 l 271 475 l 339 475 l 339 610 l 407 610 l 407 746 l 475 746 l 475 882 m 271 68 l 271 136 l 203 136 l 203 68 l 68 68 l 68 203 l 136 203 l 136 271 l 68 271 l 68 882 l 136 882 l 136 949 l 203 949 l 203 1017 l 543 1017 l 543 949 l 610 949 l 610 1017 l 746 1017 l 746 882 l 678 882 l 678 814 l 746 814 l 746 203 l 678 203 l 678 136 l 610 136 l 610 68 l 271 68 z "},"Ù":{"ha":814,"x_min":68,"x_max":746,"o":"m 407 1153 l 407 1085 l 475 1085 l 475 1017 l 543 1017 l 543 949 l 407 949 l 407 1017 l 271 1017 l 271 1085 l 203 1085 l 203 1153 l 407 1153 m 136 203 l 68 203 l 68 882 l 203 882 l 203 271 l 271 271 l 271 203 l 543 203 l 543 271 l 610 271 l 610 882 l 746 882 l 746 203 l 678 203 l 678 136 l 610 136 l 610 68 l 203 68 l 203 136 l 136 136 l 136 203 z "},"Ú":{"ha":814,"x_min":68,"x_max":746,"o":"m 610 1153 l 610 1085 l 543 1085 l 543 1017 l 407 1017 l 407 949 l 271 949 l 271 1017 l 339 1017 l 339 1085 l 407 1085 l 407 1153 l 610 1153 m 136 203 l 68 203 l 68 882 l 203 882 l 203 271 l 271 271 l 271 203 l 543 203 l 543 271 l 610 271 l 610 882 l 746 882 l 746 203 l 678 203 l 678 136 l 610 136 l 610 68 l 203 68 l 203 136 l 136 136 l 136 203 z "},"Û":{"ha":814,"x_min":68,"x_max":746,"o":"m 136 203 l 68 203 l 68 882 l 203 882 l 203 271 l 271 271 l 271 203 l 543 203 l 543 271 l 610 271 l 610 882 l 746 882 l 746 203 l 678 203 l 678 136 l 610 136 l 610 68 l 203 68 l 203 136 l 136 136 l 136 203 m 475 1153 l 475 1085 l 543 1085 l 543 1017 l 610 1017 l 610 949 l 475 949 l 475 1017 l 339 1017 l 339 949 l 203 949 l 203 1017 l 271 1017 l 271 1085 l 339 1085 l 339 1153 l 475 1153 z "},"Ü":{"ha":814,"x_min":68,"x_max":746,"o":"m 136 203 l 68 203 l 68 882 l 203 882 l 203 271 l 271 271 l 271 203 l 543 203 l 543 271 l 610 271 l 610 882 l 746 882 l 746 203 l 678 203 l 678 136 l 610 136 l 610 68 l 203 68 l 203 136 l 136 136 l 136 203 m 203 1017 l 203 1153 l 339 1153 l 339 1017 l 203 1017 m 475 1153 l 610 1153 l 610 1017 l 475 1017 l 475 1153 z "},"Ý":{"ha":814,"x_min":68,"x_max":746,"o":"m 407 1085 l 407 1153 l 610 1153 l 610 1085 l 543 1085 l 543 1017 l 407 1017 l 407 949 l 271 949 l 271 1017 l 339 1017 l 339 1085 l 407 1085 m 68 882 l 203 882 l 203 678 l 271 678 l 271 610 l 339 610 l 339 543 l 475 543 l 475 610 l 543 610 l 543 678 l 610 678 l 610 882 l 746 882 l 746 610 l 678 610 l 678 543 l 610 543 l 610 475 l 543 475 l 543 407 l 475 407 l 475 68 l 339 68 l 339 407 l 271 407 l 271 475 l 203 475 l 203 543 l 136 543 l 136 610 l 68 610 l 68 882 z "},"Þ":{"ha":814,"x_min":68,"x_max":746,"o":"m 203 271 l 203 68 l 68 68 l 68 1085 l 203 1085 l 203 882 l 610 882 l 610 814 l 678 814 l 678 746 l 746 746 l 746 407 l 678 407 l 678 339 l 610 339 l 610 271 l 203 271 m 203 746 l 203 407 l 543 407 l 543 475 l 610 475 l 610 678 l 543 678 l 543 746 l 203 746 z "},"ß":{"ha":814,"x_min":68,"x_max":678,"o":"m 203 949 l 203 68 l 68 68 l 68 1017 l 136 1017 l 136 1085 l 203 1085 l 203 1153 l 339 1153 l 339 1085 l 475 1085 l 475 1017 l 543 1017 l 543 746 l 475 746 l 475 543 l 543 543 l 543 475 l 610 475 l 610 407 l 678 407 l 678 136 l 610 136 l 610 68 l 271 68 l 271 203 l 543 203 l 543 339 l 475 339 l 475 407 l 407 407 l 407 475 l 339 475 l 339 746 l 407 746 l 407 949 l 339 949 l 339 1017 l 271 1017 l 271 949 l 203 949 z "},"à":{"ha":814,"x_min":68,"x_max":746,"o":"m 271 203 l 543 203 l 543 271 l 610 271 l 610 339 l 543 339 l 543 407 l 271 407 l 271 339 l 203 339 l 203 271 l 271 271 l 271 203 m 203 68 l 203 136 l 136 136 l 136 203 l 68 203 l 68 407 l 136 407 l 136 475 l 203 475 l 203 543 l 543 543 l 543 475 l 610 475 l 610 610 l 203 610 l 203 746 l 610 746 l 610 678 l 678 678 l 678 610 l 746 610 l 746 68 l 610 68 l 610 136 l 543 136 l 543 68 l 203 68 m 407 1017 l 407 949 l 475 949 l 475 882 l 543 882 l 543 814 l 407 814 l 407 882 l 271 882 l 271 949 l 203 949 l 203 1017 l 407 1017 z "},"á":{"ha":814,"x_min":68,"x_max":746,"o":"m 271 203 l 543 203 l 543 271 l 610 271 l 610 339 l 543 339 l 543 407 l 271 407 l 271 339 l 203 339 l 203 271 l 271 271 l 271 203 m 203 68 l 203 136 l 136 136 l 136 203 l 68 203 l 68 407 l 136 407 l 136 475 l 203 475 l 203 543 l 543 543 l 543 475 l 610 475 l 610 610 l 203 610 l 203 746 l 610 746 l 610 678 l 678 678 l 678 610 l 746 610 l 746 68 l 610 68 l 610 136 l 543 136 l 543 68 l 203 68 m 407 949 l 407 1017 l 610 1017 l 610 949 l 543 949 l 543 882 l 407 882 l 407 814 l 271 814 l 271 882 l 339 882 l 339 949 l 407 949 z "},"â":{"ha":814,"x_min":68,"x_max":746,"o":"m 271 203 l 543 203 l 543 271 l 610 271 l 610 339 l 543 339 l 543 407 l 271 407 l 271 339 l 203 339 l 203 271 l 271 271 l 271 203 m 203 68 l 203 136 l 136 136 l 136 203 l 68 203 l 68 407 l 136 407 l 136 475 l 203 475 l 203 543 l 543 543 l 543 475 l 610 475 l 610 610 l 203 610 l 203 746 l 610 746 l 610 678 l 678 678 l 678 610 l 746 610 l 746 68 l 610 68 l 610 136 l 543 136 l 543 68 l 203 68 m 475 1017 l 475 949 l 543 949 l 543 882 l 610 882 l 610 814 l 475 814 l 475 882 l 339 882 l 339 814 l 203 814 l 203 882 l 271 882 l 271 949 l 339 949 l 339 1017 l 475 1017 z "},"ã":{"ha":814,"x_min":68,"x_max":746,"o":"m 271 203 l 543 203 l 543 271 l 610 271 l 610 339 l 543 339 l 543 407 l 271 407 l 271 339 l 203 339 l 203 271 l 271 271 l 271 203 m 203 68 l 203 136 l 136 136 l 136 203 l 68 203 l 68 407 l 136 407 l 136 475 l 203 475 l 203 543 l 543 543 l 543 475 l 610 475 l 610 610 l 203 610 l 203 746 l 610 746 l 610 678 l 678 678 l 678 610 l 746 610 l 746 68 l 610 68 l 610 136 l 543 136 l 543 68 l 203 68 m 543 882 l 543 814 l 407 814 l 407 882 l 271 882 l 271 814 l 203 814 l 203 949 l 271 949 l 271 1017 l 407 1017 l 407 949 l 543 949 l 543 1017 l 610 1017 l 610 882 l 543 882 z "},"ä":{"ha":814,"x_min":68,"x_max":746,"o":"m 203 882 l 203 1017 l 339 1017 l 339 882 l 203 882 m 475 1017 l 610 1017 l 610 882 l 475 882 l 475 1017 m 271 203 l 543 203 l 543 271 l 610 271 l 610 339 l 543 339 l 543 407 l 271 407 l 271 339 l 203 339 l 203 271 l 271 271 l 271 203 m 203 68 l 203 136 l 136 136 l 136 203 l 68 203 l 68 407 l 136 407 l 136 475 l 203 475 l 203 543 l 543 543 l 543 475 l 610 475 l 610 610 l 203 610 l 203 746 l 610 746 l 610 678 l 678 678 l 678 610 l 746 610 l 746 68 l 610 68 l 610 136 l 543 136 l 543 68 l 203 68 z "},"å":{"ha":814,"x_min":68,"x_max":746,"o":"m 271 203 l 543 203 l 543 271 l 610 271 l 610 339 l 543 339 l 543 407 l 271 407 l 271 339 l 203 339 l 203 271 l 271 271 l 271 203 m 203 68 l 203 136 l 136 136 l 136 203 l 68 203 l 68 407 l 136 407 l 136 475 l 203 475 l 203 543 l 543 543 l 543 475 l 610 475 l 610 610 l 203 610 l 203 746 l 610 746 l 610 678 l 678 678 l 678 610 l 746 610 l 746 68 l 610 68 l 610 136 l 543 136 l 543 68 l 203 68 m 271 949 l 339 949 l 339 814 l 271 814 l 271 949 m 339 746 l 339 814 l 475 814 l 475 746 l 339 746 m 475 1017 l 475 949 l 339 949 l 339 1017 l 475 1017 m 543 814 l 475 814 l 475 949 l 543 949 l 543 814 z "},"æ":{"ha":814,"x_min":68,"x_max":746,"o":"m 475 543 l 610 543 l 610 678 l 475 678 l 475 543 m 339 407 l 203 407 l 203 203 l 339 203 l 339 407 m 136 68 l 136 136 l 68 136 l 68 475 l 136 475 l 136 543 l 339 543 l 339 678 l 68 678 l 68 814 l 339 814 l 339 746 l 475 746 l 475 814 l 678 814 l 678 746 l 746 746 l 746 407 l 475 407 l 475 203 l 678 203 l 678 68 l 475 68 l 475 136 l 407 136 l 407 68 l 136 68 z "},"ç":{"ha":814,"x_min":68,"x_max":746,"o":"m 339 271 l 203 271 l 203 339 l 136 339 l 136 407 l 68 407 l 68 814 l 136 814 l 136 882 l 203 882 l 203 949 l 610 949 l 610 882 l 678 882 l 678 814 l 746 814 l 746 678 l 610 678 l 610 746 l 543 746 l 543 814 l 271 814 l 271 746 l 203 746 l 203 475 l 271 475 l 271 407 l 543 407 l 543 475 l 610 475 l 610 543 l 746 543 l 746 407 l 678 407 l 678 339 l 610 339 l 610 271 l 543 271 l 543 203 l 475 203 l 475 136 l 407 136 l 407 68 l 203 68 l 203 136 l 271 136 l 271 203 l 339 203 l 339 271 z "},"è":{"ha":814,"x_min":68,"x_max":746,"o":"m 407 1017 l 407 949 l 475 949 l 475 882 l 543 882 l 543 814 l 407 814 l 407 882 l 271 882 l 271 949 l 203 949 l 203 1017 l 407 1017 m 746 271 l 746 203 l 678 203 l 678 136 l 610 136 l 610 68 l 203 68 l 203 136 l 136 136 l 136 203 l 68 203 l 68 610 l 136 610 l 136 678 l 203 678 l 203 746 l 610 746 l 610 678 l 678 678 l 678 610 l 746 610 l 746 407 l 678 407 l 678 339 l 203 339 l 203 271 l 271 271 l 271 203 l 543 203 l 543 271 l 746 271 m 203 475 l 610 475 l 610 543 l 543 543 l 543 610 l 271 610 l 271 543 l 203 543 l 203 475 z "},"é":{"ha":814,"x_min":68,"x_max":746,"o":"m 746 271 l 746 203 l 678 203 l 678 136 l 610 136 l 610 68 l 203 68 l 203 136 l 136 136 l 136 203 l 68 203 l 68 610 l 136 610 l 136 678 l 203 678 l 203 746 l 610 746 l 610 678 l 678 678 l 678 610 l 746 610 l 746 407 l 678 407 l 678 339 l 203 339 l 203 271 l 271 271 l 271 203 l 543 203 l 543 271 l 746 271 m 203 475 l 610 475 l 610 543 l 543 543 l 543 610 l 271 610 l 271 543 l 203 543 l 203 475 m 407 949 l 407 1017 l 610 1017 l 610 949 l 543 949 l 543 882 l 407 882 l 407 814 l 271 814 l 271 882 l 339 882 l 339 949 l 407 949 z "},"ê":{"ha":814,"x_min":68,"x_max":746,"o":"m 746 271 l 746 203 l 678 203 l 678 136 l 610 136 l 610 68 l 203 68 l 203 136 l 136 136 l 136 203 l 68 203 l 68 610 l 136 610 l 136 678 l 203 678 l 203 746 l 610 746 l 610 678 l 678 678 l 678 610 l 746 610 l 746 407 l 678 407 l 678 339 l 203 339 l 203 271 l 271 271 l 271 203 l 543 203 l 543 271 l 746 271 m 203 475 l 610 475 l 610 543 l 543 543 l 543 610 l 271 610 l 271 543 l 203 543 l 203 475 m 475 1017 l 475 949 l 543 949 l 543 882 l 610 882 l 610 814 l 475 814 l 475 882 l 339 882 l 339 814 l 203 814 l 203 882 l 271 882 l 271 949 l 339 949 l 339 1017 l 475 1017 z "},"ë":{"ha":814,"x_min":68,"x_max":746,"o":"m 746 271 l 746 203 l 678 203 l 678 136 l 610 136 l 610 68 l 203 68 l 203 136 l 136 136 l 136 203 l 68 203 l 68 610 l 136 610 l 136 678 l 203 678 l 203 746 l 610 746 l 610 678 l 678 678 l 678 610 l 746 610 l 746 407 l 678 407 l 678 339 l 203 339 l 203 271 l 271 271 l 271 203 l 543 203 l 543 271 l 746 271 m 203 475 l 610 475 l 610 543 l 543 543 l 543 610 l 271 610 l 271 543 l 203 543 l 203 475 m 203 882 l 203 1017 l 339 1017 l 339 882 l 203 882 m 475 1017 l 610 1017 l 610 882 l 475 882 l 475 1017 z "},"ì":{"ha":814,"x_min":136,"x_max":610,"o":"m 543 203 l 610 203 l 610 68 l 475 68 l 475 136 l 407 136 l 407 203 l 339 203 l 339 543 l 203 543 l 203 678 l 475 678 l 475 271 l 543 271 l 543 203 m 543 203 l 610 203 l 610 68 l 475 68 l 475 136 l 407 136 l 407 203 l 339 203 l 339 543 l 203 543 l 203 678 l 475 678 l 475 271 l 543 271 l 543 203 m 339 1017 l 339 949 l 407 949 l 407 882 l 475 882 l 475 814 l 339 814 l 339 882 l 203 882 l 203 949 l 136 949 l 136 1017 l 339 1017 z "},"í":{"ha":814,"x_min":203,"x_max":610,"o":"m 543 203 l 610 203 l 610 68 l 475 68 l 475 136 l 407 136 l 407 203 l 339 203 l 339 543 l 203 543 l 203 678 l 475 678 l 475 271 l 543 271 l 543 203 m 543 203 l 610 203 l 610 68 l 475 68 l 475 136 l 407 136 l 407 203 l 339 203 l 339 543 l 203 543 l 203 678 l 475 678 l 475 271 l 543 271 l 543 203 m 610 1017 l 610 949 l 543 949 l 543 882 l 407 882 l 407 814 l 271 814 l 271 882 l 339 882 l 339 949 l 407 949 l 407 1017 l 610 1017 z "},"î":{"ha":814,"x_min":136,"x_max":610,"o":"m 543 203 l 610 203 l 610 68 l 475 68 l 475 136 l 407 136 l 407 203 l 339 203 l 339 543 l 203 543 l 203 678 l 475 678 l 475 271 l 543 271 l 543 203 m 543 203 l 610 203 l 610 68 l 475 68 l 475 136 l 407 136 l 407 203 l 339 203 l 339 543 l 203 543 l 203 678 l 475 678 l 475 271 l 543 271 l 543 203 m 407 1017 l 407 949 l 475 949 l 475 882 l 543 882 l 543 814 l 407 814 l 407 882 l 271 882 l 271 814 l 136 814 l 136 882 l 203 882 l 203 949 l 271 949 l 271 1017 l 407 1017 z "},"ï":{"ha":814,"x_min":136,"x_max":610,"o":"m 543 203 l 610 203 l 610 68 l 475 68 l 475 136 l 407 136 l 407 203 l 339 203 l 339 543 l 203 543 l 203 678 l 475 678 l 475 271 l 543 271 l 543 203 m 543 203 l 610 203 l 610 68 l 475 68 l 475 136 l 407 136 l 407 203 l 339 203 l 339 543 l 203 543 l 203 678 l 475 678 l 475 271 l 543 271 l 543 203 m 136 882 l 136 1017 l 271 1017 l 271 882 l 136 882 m 407 1017 l 543 1017 l 543 882 l 407 882 l 407 1017 z "},"ð":{"ha":814,"x_min":68,"x_max":746,"o":"m 203 271 l 271 271 l 271 203 l 475 203 l 475 271 l 543 271 l 543 610 l 271 610 l 271 543 l 203 543 l 203 271 m 136 203 l 68 203 l 68 610 l 136 610 l 136 678 l 203 678 l 203 746 l 543 746 l 543 814 l 271 814 l 271 949 l 543 949 l 543 1085 l 678 1085 l 678 949 l 746 949 l 746 814 l 678 814 l 678 203 l 610 203 l 610 136 l 543 136 l 543 68 l 203 68 l 203 136 l 136 136 l 136 203 z "},"ñ":{"ha":814,"x_min":68,"x_max":746,"o":"m 203 543 l 203 68 l 68 68 l 68 746 l 203 746 l 203 678 l 271 678 l 271 746 l 610 746 l 610 678 l 678 678 l 678 610 l 746 610 l 746 68 l 610 68 l 610 543 l 543 543 l 543 610 l 271 610 l 271 543 l 203 543 m 543 882 l 543 814 l 407 814 l 407 882 l 271 882 l 271 814 l 203 814 l 203 949 l 271 949 l 271 1017 l 407 1017 l 407 949 l 543 949 l 543 1017 l 610 1017 l 610 882 l 543 882 z "},"ò":{"ha":814,"x_min":68,"x_max":746,"o":"m 407 1017 l 407 949 l 475 949 l 475 882 l 543 882 l 543 814 l 407 814 l 407 882 l 271 882 l 271 949 l 203 949 l 203 1017 l 407 1017 m 271 203 l 543 203 l 543 271 l 610 271 l 610 543 l 543 543 l 543 610 l 271 610 l 271 543 l 203 543 l 203 271 l 271 271 l 271 203 m 203 68 l 203 136 l 136 136 l 136 203 l 68 203 l 68 610 l 136 610 l 136 678 l 203 678 l 203 746 l 610 746 l 610 678 l 678 678 l 678 610 l 746 610 l 746 203 l 678 203 l 678 136 l 610 136 l 610 68 l 203 68 z "},"ó":{"ha":814,"x_min":68,"x_max":746,"o":"m 610 1017 l 610 949 l 543 949 l 543 882 l 407 882 l 407 814 l 271 814 l 271 882 l 339 882 l 339 949 l 407 949 l 407 1017 l 610 1017 m 271 203 l 543 203 l 543 271 l 610 271 l 610 543 l 543 543 l 543 610 l 271 610 l 271 543 l 203 543 l 203 271 l 271 271 l 271 203 m 203 68 l 203 136 l 136 136 l 136 203 l 68 203 l 68 610 l 136 610 l 136 678 l 203 678 l 203 746 l 610 746 l 610 678 l 678 678 l 678 610 l 746 610 l 746 203 l 678 203 l 678 136 l 610 136 l 610 68 l 203 68 z "},"ô":{"ha":814,"x_min":68,"x_max":746,"o":"m 271 203 l 543 203 l 543 271 l 610 271 l 610 543 l 543 543 l 543 610 l 271 610 l 271 543 l 203 543 l 203 271 l 271 271 l 271 203 m 203 68 l 203 136 l 136 136 l 136 203 l 68 203 l 68 610 l 136 610 l 136 678 l 203 678 l 203 746 l 610 746 l 610 678 l 678 678 l 678 610 l 746 610 l 746 203 l 678 203 l 678 136 l 610 136 l 610 68 l 203 68 m 475 1017 l 475 949 l 543 949 l 543 882 l 610 882 l 610 814 l 475 814 l 475 882 l 339 882 l 339 814 l 203 814 l 203 882 l 271 882 l 271 949 l 339 949 l 339 1017 l 475 1017 z "},"õ":{"ha":814,"x_min":68,"x_max":746,"o":"m 271 203 l 543 203 l 543 271 l 610 271 l 610 543 l 543 543 l 543 610 l 271 610 l 271 543 l 203 543 l 203 271 l 271 271 l 271 203 m 203 68 l 203 136 l 136 136 l 136 203 l 68 203 l 68 610 l 136 610 l 136 678 l 203 678 l 203 746 l 610 746 l 610 678 l 678 678 l 678 610 l 746 610 l 746 203 l 678 203 l 678 136 l 610 136 l 610 68 l 203 68 m 543 882 l 543 814 l 407 814 l 407 882 l 271 882 l 271 814 l 203 814 l 203 949 l 271 949 l 271 1017 l 407 1017 l 407 949 l 543 949 l 543 1017 l 610 1017 l 610 882 l 543 882 z "},"ö":{"ha":814,"x_min":68,"x_max":746,"o":"m 271 203 l 543 203 l 543 271 l 610 271 l 610 543 l 543 543 l 543 610 l 271 610 l 271 543 l 203 543 l 203 271 l 271 271 l 271 203 m 203 68 l 203 136 l 136 136 l 136 203 l 68 203 l 68 610 l 136 610 l 136 678 l 203 678 l 203 746 l 610 746 l 610 678 l 678 678 l 678 610 l 746 610 l 746 203 l 678 203 l 678 136 l 610 136 l 610 68 l 203 68 m 203 882 l 203 1017 l 339 1017 l 339 882 l 203 882 m 475 1017 l 610 1017 l 610 882 l 475 882 l 475 1017 z "},"ø":{"ha":814,"x_min":68,"x_max":746,"o":"m 543 678 l 271 678 l 271 610 l 203 610 l 203 339 l 271 339 l 271 407 l 339 407 l 339 475 l 407 475 l 407 543 l 475 543 l 475 610 l 543 610 l 543 678 m 271 68 l 271 136 l 203 136 l 203 68 l 68 68 l 68 203 l 136 203 l 136 271 l 68 271 l 68 678 l 136 678 l 136 746 l 203 746 l 203 814 l 543 814 l 543 746 l 610 746 l 610 814 l 746 814 l 746 678 l 678 678 l 678 610 l 746 610 l 746 203 l 678 203 l 678 136 l 610 136 l 610 68 l 271 68 m 543 203 l 543 271 l 610 271 l 610 543 l 543 543 l 543 475 l 475 475 l 475 407 l 407 407 l 407 339 l 339 339 l 339 271 l 271 271 l 271 203 l 543 203 z "},"ù":{"ha":814,"x_min":68,"x_max":746,"o":"m 68 746 l 203 746 l 203 271 l 271 271 l 271 203 l 543 203 l 543 271 l 610 271 l 610 746 l 746 746 l 746 203 l 678 203 l 678 136 l 610 136 l 610 68 l 203 68 l 203 136 l 136 136 l 136 203 l 68 203 l 68 746 m 407 1017 l 407 949 l 475 949 l 475 882 l 543 882 l 543 814 l 407 814 l 407 882 l 271 882 l 271 949 l 203 949 l 203 1017 l 407 1017 z "},"ú":{"ha":814,"x_min":68,"x_max":746,"o":"m 68 746 l 203 746 l 203 271 l 271 271 l 271 203 l 543 203 l 543 271 l 610 271 l 610 746 l 746 746 l 746 203 l 678 203 l 678 136 l 610 136 l 610 68 l 203 68 l 203 136 l 136 136 l 136 203 l 68 203 l 68 746 m 610 1017 l 610 949 l 543 949 l 543 882 l 407 882 l 407 814 l 271 814 l 271 882 l 339 882 l 339 949 l 407 949 l 407 1017 l 610 1017 z "},"û":{"ha":814,"x_min":68,"x_max":746,"o":"m 475 1017 l 475 949 l 543 949 l 543 882 l 610 882 l 610 814 l 475 814 l 475 882 l 339 882 l 339 814 l 203 814 l 203 882 l 271 882 l 271 949 l 339 949 l 339 1017 l 475 1017 m 68 746 l 203 746 l 203 271 l 271 271 l 271 203 l 543 203 l 543 271 l 610 271 l 610 746 l 746 746 l 746 203 l 678 203 l 678 136 l 610 136 l 610 68 l 203 68 l 203 136 l 136 136 l 136 203 l 68 203 l 68 746 z "},"ü":{"ha":814,"x_min":68,"x_max":746,"o":"m 68 746 l 203 746 l 203 271 l 271 271 l 271 203 l 543 203 l 543 271 l 610 271 l 610 746 l 746 746 l 746 203 l 678 203 l 678 136 l 610 136 l 610 68 l 203 68 l 203 136 l 136 136 l 136 203 l 68 203 l 68 746 m 203 882 l 203 1017 l 339 1017 l 339 882 l 203 882 m 475 1017 l 610 1017 l 610 882 l 475 882 l 475 1017 z "},"ý":{"ha":814,"x_min":68,"x_max":746,"o":"m 203 68 l 203 203 l 543 203 l 543 271 l 610 271 l 610 475 l 543 475 l 543 407 l 475 407 l 475 339 l 203 339 l 203 407 l 136 407 l 136 475 l 68 475 l 68 746 l 203 746 l 203 543 l 271 543 l 271 475 l 407 475 l 407 543 l 475 543 l 475 610 l 543 610 l 543 678 l 610 678 l 610 746 l 746 746 l 746 203 l 678 203 l 678 136 l 610 136 l 610 68 l 203 68 m 407 949 l 407 1017 l 610 1017 l 610 949 l 543 949 l 543 882 l 407 882 l 407 814 l 271 814 l 271 882 l 339 882 l 339 949 l 407 949 z "},"þ":{"ha":814,"x_min":68,"x_max":746,"o":"m 203 271 l 203 68 l 68 68 l 68 949 l 203 949 l 203 746 l 339 746 l 339 814 l 610 814 l 610 746 l 678 746 l 678 678 l 746 678 l 746 339 l 678 339 l 678 271 l 610 271 l 610 203 l 339 203 l 339 271 l 203 271 m 203 610 l 203 407 l 339 407 l 339 339 l 543 339 l 543 407 l 610 407 l 610 610 l 543 610 l 543 678 l 339 678 l 339 610 l 203 610 z "},"ÿ":{"ha":814,"x_min":68,"x_max":746,"o":"m 203 882 l 203 1017 l 339 1017 l 339 882 l 203 882 m 475 1017 l 610 1017 l 610 882 l 475 882 l 475 1017 m 203 68 l 203 203 l 543 203 l 543 271 l 610 271 l 610 475 l 543 475 l 543 407 l 475 407 l 475 339 l 203 339 l 203 407 l 136 407 l 136 475 l 68 475 l 68 746 l 203 746 l 203 543 l 271 543 l 271 475 l 407 475 l 407 543 l 475 543 l 475 610 l 543 610 l 543 678 l 610 678 l 610 746 l 746 746 l 746 203 l 678 203 l 678 136 l 610 136 l 610 68 l 203 68 z "},"‘":{"ha":814,"x_min":407,"x_max":610,"o":"m 610 1017 l 610 949 l 543 949 l 543 1017 l 610 1017 m 543 814 l 610 814 l 610 610 l 407 610 l 407 882 l 475 882 l 475 949 l 543 949 l 543 814 z "},"’":{"ha":814,"x_min":203,"x_max":407,"o":"m 203 610 l 203 678 l 271 678 l 271 610 l 203 610 m 271 814 l 203 814 l 203 1017 l 407 1017 l 407 746 l 339 746 l 339 678 l 271 678 l 271 814 z "},"“":{"ha":814,"x_min":136,"x_max":678,"o":"m 339 1017 l 339 949 l 271 949 l 271 1017 l 339 1017 m 610 814 l 678 814 l 678 610 l 475 610 l 475 882 l 543 882 l 543 949 l 610 949 l 610 814 m 271 814 l 339 814 l 339 610 l 136 610 l 136 882 l 203 882 l 203 949 l 271 949 l 271 814 m 678 1017 l 678 949 l 610 949 l 610 1017 l 678 1017 z "},"”":{"ha":814,"x_min":136,"x_max":678,"o":"m 475 610 l 475 678 l 543 678 l 543 610 l 475 610 m 203 814 l 136 814 l 136 1017 l 339 1017 l 339 746 l 271 746 l 271 678 l 203 678 l 203 814 m 543 814 l 475 814 l 475 1017 l 678 1017 l 678 746 l 610 746 l 610 678 l 543 678 l 543 814 m 136 610 l 136 678 l 203 678 l 203 610 l 136 610 z "},"•":{"ha":814,"x_min":203,"x_max":610,"o":"m 271 678 l 271 746 l 543 746 l 543 678 l 610 678 l 610 475 l 543 475 l 543 407 l 271 407 l 271 475 l 203 475 l 203 678 l 271 678 z "},"…":{"ha":814,"x_min":68,"x_max":746,"o":"m 203 203 l 203 68 l 68 68 l 68 203 l 203 203 m 475 203 l 475 68 l 339 68 l 339 203 l 475 203 m 746 203 l 746 68 l 610 68 l 610 203 l 746 203 z "},"‹":{"ha":814,"x_min":136,"x_max":475,"o":"m 203 339 l 136 339 l 136 407 l 203 407 l 203 475 l 271 475 l 271 543 l 339 543 l 339 610 l 407 610 l 407 678 l 475 678 l 475 543 l 407 543 l 407 475 l 339 475 l 339 407 l 271 407 l 271 339 l 339 339 l 339 271 l 407 271 l 407 203 l 475 203 l 475 68 l 407 68 l 407 136 l 339 136 l 339 203 l 271 203 l 271 271 l 203 271 l 203 339 z "},"›":{"ha":814,"x_min":203,"x_max":543,"o":"m 475 271 l 407 271 l 407 203 l 339 203 l 339 136 l 271 136 l 271 68 l 203 68 l 203 203 l 271 203 l 271 271 l 339 271 l 339 339 l 407 339 l 407 407 l 339 407 l 339 475 l 271 475 l 271 543 l 203 543 l 203 678 l 271 678 l 271 610 l 339 610 l 339 543 l 407 543 l 407 475 l 475 475 l 475 407 l 543 407 l 543 339 l 475 339 l 475 271 z "},"⁄":{"ha":814,"x_min":68,"x_max":746,"o":"m 610 1017 l 746 1017 l 746 746 l 678 746 l 678 678 l 610 678 l 610 610 l 543 610 l 543 543 l 475 543 l 475 475 l 407 475 l 407 407 l 339 407 l 339 339 l 271 339 l 271 271 l 203 271 l 203 68 l 68 68 l 68 339 l 136 339 l 136 407 l 203 407 l 203 475 l 271 475 l 271 543 l 339 543 l 339 610 l 407 610 l 407 678 l 475 678 l 475 746 l 543 746 l 543 814 l 610 814 l 610 1017 z "},"₣":{"ha":814,"x_min":68,"x_max":746,"o":"m 136 339 l 136 1017 l 746 1017 l 746 882 l 271 882 l 271 610 l 610 610 l 610 475 l 271 475 l 271 339 l 407 339 l 407 271 l 271 271 l 271 68 l 136 68 l 136 271 l 68 271 l 68 339 l 136 339 z "},"₤":{"ha":814,"x_min":68,"x_max":746,"o":"m 271 203 l 746 203 l 746 68 l 68 68 l 68 203 l 136 203 l 136 271 l 203 271 l 203 407 l 68 407 l 68 543 l 203 543 l 203 610 l 68 610 l 68 746 l 203 746 l 203 1017 l 271 1017 l 271 1085 l 339 1085 l 339 1153 l 610 1153 l 610 1085 l 678 1085 l 678 1017 l 746 1017 l 746 882 l 610 882 l 610 949 l 543 949 l 543 1017 l 407 1017 l 407 949 l 339 949 l 339 746 l 610 746 l 610 610 l 339 610 l 339 543 l 610 543 l 610 407 l 339 407 l 339 271 l 271 271 l 271 203 z "},"₧":{"ha":814,"x_min":68,"x_max":746,"o":"m 136 407 l 136 68 l 68 68 l 68 1017 l 271 1017 l 271 949 l 339 949 l 339 543 l 407 543 l 407 678 l 475 678 l 475 543 l 746 543 l 746 407 l 678 407 l 678 475 l 610 475 l 610 339 l 746 339 l 746 68 l 543 68 l 543 203 l 610 203 l 610 136 l 678 136 l 678 271 l 543 271 l 543 475 l 475 475 l 475 68 l 407 68 l 407 475 l 271 475 l 271 407 l 136 407 m 136 949 l 136 475 l 203 475 l 203 543 l 271 543 l 271 882 l 203 882 l 203 949 l 136 949 z "},"€":{"ha":814,"x_min":68,"x_max":746,"o":"m 678 1017 l 746 1017 l 746 949 l 610 949 l 610 1017 l 407 1017 l 407 949 l 339 949 l 339 882 l 271 882 l 271 814 l 475 814 l 475 678 l 271 678 l 271 610 l 475 610 l 475 475 l 271 475 l 271 339 l 339 339 l 339 271 l 407 271 l 407 203 l 610 203 l 610 271 l 746 271 l 746 203 l 678 203 l 678 136 l 610 136 l 610 68 l 339 68 l 339 136 l 271 136 l 271 203 l 203 203 l 203 271 l 136 271 l 136 475 l 68 475 l 68 610 l 136 610 l 136 678 l 68 678 l 68 814 l 136 814 l 136 949 l 203 949 l 203 1017 l 271 1017 l 271 1085 l 339 1085 l 339 1153 l 610 1153 l 610 1085 l 678 1085 l 678 1017 z "},"™":{"ha":814,"x_min":68,"x_max":746,"o":"m 610 882 l 610 814 l 543 814 l 543 882 l 610 882 m 475 882 l 475 610 l 407 610 l 407 1017 l 475 1017 l 475 949 l 543 949 l 543 882 l 475 882 m 678 949 l 678 1017 l 746 1017 l 746 610 l 678 610 l 678 882 l 610 882 l 610 949 l 678 949 m 203 949 l 68 949 l 68 1017 l 407 1017 l 407 949 l 271 949 l 271 610 l 203 610 l 203 949 z "},"►":{"ha":814,"x_min":136,"x_max":678,"o":"m 136 136 l 136 949 l 339 949 l 339 882 l 407 882 l 407 814 l 475 814 l 475 746 l 543 746 l 543 678 l 610 678 l 610 610 l 678 610 l 678 475 l 610 475 l 610 407 l 543 407 l 543 339 l 475 339 l 475 271 l 407 271 l 407 203 l 339 203 l 339 136 l 136 136 z "},"◄":{"ha":814,"x_min":136,"x_max":678,"o":"m 475 136 l 475 203 l 407 203 l 407 271 l 339 271 l 339 339 l 271 339 l 271 407 l 203 407 l 203 475 l 136 475 l 136 610 l 203 610 l 203 678 l 271 678 l 271 746 l 339 746 l 339 814 l 407 814 l 407 882 l 475 882 l 475 949 l 678 949 l 678 136 l 475 136 z "},"▼":{"ha":814,"x_min":68,"x_max":746,"o":"m 746 678 l 678 678 l 678 543 l 610 543 l 610 407 l 543 407 l 543 271 l 475 271 l 475 136 l 339 136 l 339 271 l 271 271 l 271 407 l 203 407 l 203 543 l 136 543 l 136 678 l 68 678 l 68 949 l 746 949 l 746 678 z "},"▲":{"ha":814,"x_min":68,"x_max":746,"o":"m 746 136 l 68 136 l 68 407 l 136 407 l 136 543 l 203 543 l 203 678 l 271 678 l 271 814 l 339 814 l 339 949 l 475 949 l 475 814 l 543 814 l 543 678 l 610 678 l 610 543 l 678 543 l 678 407 l 746 407 l 746 136 z "},"←":{"ha":814,"x_min":68,"x_max":746,"o":"m 339 814 l 339 882 l 475 882 l 475 814 l 407 814 l 407 746 l 339 746 l 339 678 l 271 678 l 271 610 l 746 610 l 746 475 l 271 475 l 271 407 l 339 407 l 339 339 l 407 339 l 407 271 l 475 271 l 475 203 l 339 203 l 339 271 l 271 271 l 271 339 l 203 339 l 203 407 l 136 407 l 136 475 l 68 475 l 68 610 l 136 610 l 136 678 l 203 678 l 203 746 l 271 746 l 271 814 l 339 814 z "},"→":{"ha":814,"x_min":68,"x_max":746,"o":"m 543 814 l 543 746 l 610 746 l 610 678 l 678 678 l 678 610 l 746 610 l 746 475 l 678 475 l 678 407 l 610 407 l 610 339 l 543 339 l 543 271 l 475 271 l 475 203 l 339 203 l 339 271 l 407 271 l 407 339 l 475 339 l 475 407 l 543 407 l 543 475 l 68 475 l 68 610 l 543 610 l 543 678 l 475 678 l 475 746 l 407 746 l 407 814 l 339 814 l 339 882 l 475 882 l 475 814 l 543 814 z "},"↑":{"ha":814,"x_min":68,"x_max":746,"o":"m 203 339 l 203 203 l 68 203 l 68 339 l 136 339 l 136 475 l 203 475 l 203 610 l 271 610 l 271 746 l 339 746 l 339 882 l 475 882 l 475 746 l 543 746 l 543 610 l 610 610 l 610 475 l 678 475 l 678 339 l 746 339 l 746 203 l 610 203 l 610 339 l 543 339 l 543 475 l 475 475 l 475 610 l 339 610 l 339 475 l 271 475 l 271 339 l 203 339 z "},"↓":{"ha":814,"x_min":68,"x_max":746,"o":"m 610 746 l 610 882 l 746 882 l 746 746 l 678 746 l 678 610 l 610 610 l 610 475 l 543 475 l 543 339 l 475 339 l 475 203 l 339 203 l 339 339 l 271 339 l 271 475 l 203 475 l 203 610 l 136 610 l 136 746 l 68 746 l 68 882 l 203 882 l 203 746 l 271 746 l 271 610 l 339 610 l 339 475 l 475 475 l 475 610 l 543 610 l 543 746 l 610 746 z "},"¡":{"ha":814,"x_min":407,"x_max":543,"o":"m 407 882 l 407 1017 l 543 1017 l 543 882 l 407 882 m 407 746 l 543 746 l 543 68 l 407 68 l 407 746 z "},"↔":{"ha":814,"x_min":68,"x_max":746,"o":"m 68 610 l 407 610 l 407 814 l 475 814 l 475 746 l 543 746 l 543 678 l 610 678 l 610 610 l 678 610 l 678 543 l 746 543 l 746 407 l 678 407 l 678 339 l 610 339 l 610 271 l 543 271 l 543 203 l 475 203 l 475 136 l 407 136 l 407 339 l 68 339 l 68 610 z "}}}
